<?xml version="1.0" encoding="UTF-8"?>
<svg width="20px" height="20px" viewBox="0 0 20 20" version="1.1" xmlns="http://www.w3.org/2000/svg" xmlns:xlink="http://www.w3.org/1999/xlink">
    <!-- Generator: Sketch 43.1 (39012) - http://www.bohemiancoding.com/sketch -->
    <title>Visual Studio</title>
    <desc>Created with Sketch.</desc>
    <defs></defs>
    <g id="Page-1" stroke="none" stroke-width="1" fill="none" fill-rule="evenodd">
        <g id="Artboard" transform="translate(-77.000000, -43.000000)">
            <g id="Visual-Studio" transform="translate(76.000000, 41.000000)">
                <polygon id="Rectangle" fill="#68217A" points="1 7 3 6 3 18 1 17"></polygon>
                <polygon id="Rectangle-2" fill="#541D66" transform="translate(5.607051, 10.000000) rotate(-330.000000) translate(-5.607051, -10.000000) " points="1.34927858 7.83942379 7.86482304 8.6964746 9.86482304 12.1605762 2.84927858 10.4375"></polygon>
                <polygon id="Rectangle-3" fill="#541D66" points="3 15 8 10 8 14 3 18"></polygon>
                <polygon id="Rectangle-2-Copy" fill="#68217A" transform="translate(12.000000, 16.000000) rotate(-330.000000) translate(-12.000000, -16.000000) " points="5.53589838 12.8038476 15.4641016 14 18.4641016 19.1961524 7.53589838 16.2679492"></polygon>
                <polygon id="Rectangle-2-Copy-2" fill="#68217A" transform="translate(12.433013, 8.250000) rotate(-330.000000) translate(-12.433013, -8.250000) " points="9.46891109 11.9820508 12.3971143 1.05384758 15.3971143 6.25 11.4689111 15.4461524"></polygon>
                <polygon id="Rectangle-4" fill="#541D66" points="16 2 21 4 21 20 16 22"></polygon>
            </g>
        </g>
    </g>
</svg>