<?xml version="1.0" encoding="UTF-8"?>
<svg width="33px" height="32px" viewBox="0 0 33 32" version="1.1" xmlns="http://www.w3.org/2000/svg" xmlns:xlink="http://www.w3.org/1999/xlink">
    <!-- Generator: Sketch 43.1 (39012) - http://www.bohemiancoding.com/sketch -->
    <title>Group 2</title>
    <desc>Created with Sketch.</desc>
    <defs></defs>
    <g id="Page-1" stroke="none" stroke-width="1" fill="none" fill-rule="evenodd">
        <g id="Artboard" transform="translate(-28.000000, -50.000000)">
            <g id="Group-2" transform="translate(28.000000, 50.000000)">
                <g id="folder" transform="translate(0.000000, 5.000000)">
                    <polygon id="Rectangle-5" fill="#457EFD" points="0 4 27 0 30 21 3 25"></polygon>
                    <path d="M19.9232759,13.0294985 C20.1413793,12.8123894 20.1034483,12.6519174 19.9517241,12.4725664 C19.3543103,11.7646018 18.7758621,11.0566372 18.1784483,10.3486726 C16.5189655,8.35693215 14.85,6.35575221 13.1905172,4.35457227 C13.0577586,4.19410029 12.9439655,3.97699115 12.9060345,3.76932153 C12.8396552,3.36342183 13.1146552,2.99528024 13.512931,2.83480826 C13.9396552,2.67433628 14.3094828,2.78761062 14.6698276,3.21238938 C16.3008621,5.15693215 17.9413793,7.10147493 19.5724138,9.0460177 C19.9612069,9.50855457 20.3594828,9.97109145 20.7672414,10.4525074 C20.9758621,10.2353982 20.9474138,10.0749263 20.7956897,9.89557522 C20.1413793,9.12153392 19.487069,8.3380531 18.8327586,7.5640118 C17.5146552,5.99705015 16.2060345,4.4300885 14.8784483,2.8820059 C14.3474138,2.26843658 13.5413793,2.23067847 12.9534483,2.74041298 C12.375,3.24070796 12.3465517,3.94867257 12.887069,4.59056047 C14.9353448,7.05427729 16.9836207,9.50855457 19.0318966,11.9722714 C19.3258621,12.3309735 19.6198276,12.6707965 19.9232759,13.0294985 Z" id="Shape" fill="#235EE1" fill-rule="nonzero"></path>
                    <path d="M13.3801724,9.05545723 C13.3137931,9.00825959 13.237931,8.94218289 13.1525862,8.90442478 C12.4982759,8.65899705 11.8439655,8.43244838 11.1896552,8.18702065 C10.9810345,8.11150442 10.8862069,8.18702065 10.8103448,8.36637168 C9.61551724,11.2926254 8.42068966,14.2094395 7.22586207,17.1356932 C7.13103448,17.3528024 7.19741379,17.4566372 7.39655172,17.5321534 C8.01293103,17.7775811 8.62931034,18.0135693 9.2362069,18.2873156 C9.56810345,18.4383481 9.70086207,18.3628319 9.82413793,18.0324484 C10.962069,15.1345133 12.1189655,12.2460177 13.2663793,9.35752212 C13.2948276,9.29144543 13.3232759,9.19705015 13.3801724,9.05545723 Z" id="Shape" fill="#FFFFFF" fill-rule="nonzero"></path>
                    <path d="M19.6293103,13.1050147 C19.1551724,12.5103245 18.7189655,12.019469 18.3586207,11.4908555 C18.0362069,11 17.6758621,10.7451327 17.0784483,10.9905605 C16.9362069,11.0471976 16.775,11.0471976 16.6232759,11.0660767 C15.3525862,11.2831858 14.0913793,11.500295 12.8206897,11.7174041 C12.6215517,11.7551622 12.4508621,11.8023599 12.3655172,12.0383481 C12.1189655,12.7368732 11.8534483,13.4259587 11.5974138,14.1244838 C11.5689655,14.2 11.5689655,14.2943953 11.55,14.4265487 C14.2525862,13.9923304 16.8887931,13.5581121 19.6293103,13.1050147 Z" id="Shape" fill="#FFFFFF" fill-rule="nonzero"></path>
                    <path d="M8.97068966,12.2648968 C7.41551724,12.519764 5.9362069,12.7557522 4.40948276,13.0011799 C4.5137931,13.7091445 4.62758621,14.379351 4.70344828,15.0589971 C4.74137931,15.3516224 4.86465517,15.3893805 5.13017241,15.3516224 C5.90775862,15.2289086 6.69482759,15.1250737 7.48189655,15.0306785 C7.71896552,15.0023599 7.87068966,14.9079646 7.96551724,14.6908555 C8.25,14.0112094 8.55344828,13.3315634 8.84741379,12.6519174 C8.89482759,12.5386431 8.9137931,12.4442478 8.97068966,12.2648968 Z" id="Shape" fill="#FFFFFF" fill-rule="nonzero"></path>
                    <path d="M25.6413793,18.1551622 C24.712069,17.5887906 23.7922414,17.0318584 22.787069,16.4277286 C22.825,16.6070796 22.8060345,16.8147493 22.9008621,16.9185841 C23.0810345,17.1168142 23.2991379,17.2867257 23.5362069,17.4094395 C23.8586207,17.5887906 24.2,17.7115044 24.5318966,17.8719764 C25.0155172,18.1079646 25.3663793,18.4477876 25.3663793,19.0330383 C25.3663793,19.1274336 25.4137931,19.2218289 25.4517241,19.3256637 C25.5086207,19.2973451 25.5275862,19.2879056 25.5465517,19.2784661 C25.575,19.2501475 25.5939655,19.2218289 25.612931,19.1935103 C26.1818966,18.3533923 26.2198276,17.4283186 25.9732759,16.4843658 C25.6982759,15.4271386 25.2051724,14.5115044 24.1715517,13.9828909 C23.887069,13.8412979 23.7068966,13.9640118 23.4982759,14.1056047 C23.2801724,14.2566372 23.1568966,14.4359882 23.2137931,14.7569322 C23.3655172,14.6625369 23.4982759,14.5964602 23.5931034,14.5020649 C23.8301724,14.2566372 24.0482759,14.3132743 24.3137931,14.4831858 C25.3568966,15.2100295 26.0112069,17.0412979 25.6413793,18.1551622 Z" id="Shape" fill="#235EE1" fill-rule="nonzero"></path>
                    <path d="M6.57155172,22.1103245 C6.60948276,22.1292035 6.64741379,22.1480826 6.68534483,22.1575221 C7.62413793,20.9870206 8.57241379,19.8165192 9.53017241,18.6176991 C9.38793103,18.5421829 9.30258621,18.4855457 9.20775862,18.4477876 C8.60086207,18.2023599 7.99396552,17.9758112 7.39655172,17.720944 C7.11206897,17.5982301 7.02672414,17.6831858 7.00775862,17.9758112 C6.93189655,18.7687316 6.83706897,19.5616519 6.75172414,20.3640118 C6.68534483,20.9492625 6.62844828,21.5345133 6.57155172,22.1103245 Z" id="Shape" fill="#FFFFFF" fill-rule="nonzero"></path>
                    <path d="M12.687931,5.83657817 C12.137931,5.89321534 11.7775862,6.11976401 11.5689655,6.60117994 C11.4267241,6.95044248 11.2939655,7.29970501 11.1327586,7.63952802 C11.037931,7.83775811 11.0663793,7.96047198 11.2939655,8.0359882 C11.9293103,8.25309735 12.5646552,8.48908555 13.1905172,8.73451327 C13.4181034,8.81946903 13.512931,8.7439528 13.5982759,8.54572271 C13.7405172,8.18702065 13.9017241,7.82831858 14.0534483,7.46961652 C14.2525862,6.98820059 14.1672414,6.58230088 13.7310345,6.29911504 C13.4181034,6.10088496 13.0387931,5.98761062 12.687931,5.83657817 Z" id="Shape" fill="#FFFFFF" fill-rule="nonzero"></path>
                    <path d="M23.8112069,12.3498525 C24.6077586,12.2460177 25.3948276,12.1421829 26.1724138,12.019469 C26.2387931,12.0100295 26.3241379,11.840118 26.3146552,11.7646018 C26.2198276,11.1415929 26.1060345,10.5091445 25.9732759,9.89557522 C25.9543103,9.80117994 25.7931034,9.66902655 25.6982759,9.66902655 C25.3,9.69734513 24.9017241,9.7539823 24.5034483,9.820059 C24.3043103,9.84837758 24.162069,9.94277286 24.2758621,10.2259587 C24.6362069,10.1787611 25.0060345,10.1221239 25.3758621,10.0938053 C25.4612069,10.0843658 25.6224138,10.159882 25.6318966,10.2165192 C25.7362069,10.6884956 25.812069,11.179351 25.9068966,11.679646 C25.2905172,11.7646018 24.712069,11.840118 24.1431034,11.9156342 C23.9344828,11.9439528 23.7448276,11.9911504 23.8112069,12.3498525 Z" id="Shape" fill="#235EE1" fill-rule="nonzero"></path>
                    <path d="M19.9232759,13.0294985 C19.6198276,12.6707965 19.3258621,12.3309735 19.0318966,11.9722714 C16.9836207,9.50855457 14.9353448,7.05427729 12.887069,4.59056047 C12.3465517,3.94867257 12.375,3.25014749 12.9534483,2.74041298 C13.5508621,2.22123894 14.3568966,2.25899705 14.8784483,2.8820059 C16.2060345,4.4300885 17.5146552,6.00648968 18.8327586,7.5640118 C19.487069,8.3380531 20.1318966,9.12153392 20.7956897,9.89557522 C20.9474138,10.0749263 20.9853448,10.2353982 20.7672414,10.4525074 C20.3594828,9.97109145 19.9612069,9.50855457 19.5724138,9.0460177 C17.9413793,7.10147493 16.3008621,5.15693215 14.6698276,3.21238938 C14.3094828,2.78761062 13.9396552,2.66489676 13.512931,2.83480826 C13.1051724,2.99528024 12.8396552,3.36342183 12.9060345,3.76932153 C12.9344828,3.97699115 13.0482759,4.19410029 13.1905172,4.35457227 C14.85,6.35575221 16.5094828,8.34749263 18.1784483,10.3486726 C18.7663793,11.0566372 19.3543103,11.7646018 19.9517241,12.4725664 C20.1034483,12.6519174 20.1508621,12.8123894 19.9232759,13.0294985 Z" id="Shape" fill="#FFFFFF" fill-rule="nonzero"></path>
                    <path d="M25.6413793,18.1551622 C26.0112069,17.0412979 25.3568966,15.2100295 24.3137931,14.5020649 C24.0577586,14.3227139 23.8396552,14.2755162 23.5931034,14.520944 C23.4982759,14.6153392 23.3655172,14.6719764 23.2137931,14.7758112 C23.1568966,14.4454277 23.2801724,14.2755162 23.4982759,14.1244838 C23.7068966,13.9734513 23.887069,13.860177 24.1715517,14.0017699 C25.2051724,14.5303835 25.6982759,15.4460177 25.9732759,16.5032448 C26.2198276,17.4471976 26.1818966,18.3722714 25.612931,19.2123894 C25.5939655,19.240708 25.575,19.2690265 25.5465517,19.2973451 C25.5275862,19.3162242 25.5086207,19.3162242 25.4517241,19.3445428 C25.4232759,19.240708 25.3663793,19.1463127 25.3663793,19.0519174 C25.3663793,18.4666667 25.0155172,18.1268437 24.5318966,17.8908555 C24.2,17.7303835 23.8491379,17.6076696 23.5362069,17.4283186 C23.2991379,17.2961652 23.0715517,17.1356932 22.9008621,16.9374631 C22.8060345,16.8336283 22.825,16.6259587 22.787069,16.4466077 C23.7922414,17.0318584 24.712069,17.5887906 25.6413793,18.1551622 Z" id="Shape" fill="#FFFFFF" fill-rule="nonzero"></path>
                    <path d="M23.8112069,12.3498525 C23.7353448,11.9911504 23.9344828,11.9439528 24.1431034,11.9156342 C24.712069,11.840118 25.2810345,11.7646018 25.9068966,11.679646 C25.812069,11.179351 25.7362069,10.6979351 25.6318966,10.2165192 C25.6224138,10.159882 25.4612069,10.0843658 25.3758621,10.0938053 C25.0060345,10.1221239 24.6362069,10.1787611 24.2758621,10.2259587 C24.1715517,9.93333333 24.3137931,9.84837758 24.5034483,9.820059 C24.9017241,9.76342183 25.3,9.69734513 25.6982759,9.66902655 C25.7931034,9.65958702 25.9543103,9.80117994 25.9732759,9.89557522 C26.1060345,10.5185841 26.2198276,11.1415929 26.3146552,11.7646018 C26.3241379,11.840118 26.2293103,12.0100295 26.1724138,12.019469 C25.3948276,12.1421829 24.6172414,12.2365782 23.8112069,12.3498525 Z" id="Shape" fill="#FFFFFF" fill-rule="nonzero"></path>
                </g>
                <path d="M24.3232759,13.3569322 C23.687931,13.1681416 23.0810345,12.9982301 22.4836207,12.8283186 C22.2655172,12.7622419 22.3034483,12.6300885 22.3508621,12.4696165 C22.7017241,11.2330383 23.0431034,9.99646018 23.4034483,8.76932153 C23.7448276,7.60825959 23.9724138,6.42831858 23.8681034,5.220059 C23.7922414,4.35162242 23.6689655,3.5020649 23.0905172,2.76578171 C22.55,2.07669617 21.8198276,1.80294985 21.0043103,1.69911504 C19.8,1.53864307 18.6051724,1.55752212 17.3439655,1.66135693 C17.4672414,1.55752212 17.5715517,1.43480826 17.7043103,1.34041298 C18.6241379,0.689085546 19.6862069,0.396460177 20.7767241,0.226548673 C23.0525862,-0.132153392 25.2525862,0.207669617 27.4051724,0.943952802 C28.1543103,1.19882006 28.7801724,1.63303835 29.3301724,2.18053097 C29.8517241,2.69970501 30.4396552,2.80353982 31.0844828,2.53923304 C31.4827586,2.36932153 31.8241379,2.4259587 32.2034483,2.55811209 C33.1137931,2.87905605 33.1137931,2.86961652 32.8387931,3.80412979 C32.5922414,4.62536873 32.3456897,5.44660767 32.1086207,6.27728614 C32.0327586,6.53215339 31.9284483,6.6359882 31.6534483,6.54159292 C31.4543103,6.4660767 31.2456897,6.40943953 31.037069,6.38112094 C30.5913793,6.31504425 30.2689655,6.0979351 30.0034483,5.72035398 C29.5767241,5.14454277 28.9318966,5.19174041 28.3155172,5.25781711 C27.3862069,5.36165192 26.7887931,5.8619469 26.437931,6.74926254 C25.6508621,8.72212389 25.0724138,10.7610619 24.5034483,12.8 C24.4465517,12.9699115 24.3896552,13.139823 24.3232759,13.3569322 Z" id="Shape" fill="#D2D2D2" fill-rule="nonzero"></path>
                <path d="M18.4913793,31.9150442 C17.1163793,31.9056047 16.2155172,31.0182891 16.262931,29.7250737 C16.2724138,29.5079646 16.3387931,29.2814159 16.4146552,29.0737463 C18.2068966,23.9858407 20.0086207,18.9073746 21.8103448,13.8289086 C22.0189655,13.2247788 21.8862069,13.2058997 22.6163793,13.4135693 C23.0146552,13.5268437 23.412931,13.6495575 23.8112069,13.7439528 C24.1051724,13.8100295 24.1810345,13.9327434 24.1051724,14.2348083 C23.7258621,15.7923304 23.375,17.3498525 23.0051724,18.9073746 C22.1043103,22.6548673 21.2034483,26.4117994 20.2931034,30.159292 C20.2077586,30.5085546 20.0655172,30.8578171 19.8853448,31.1693215 C19.5724138,31.6884956 19.0887931,31.9622419 18.4913793,31.9150442 Z" id="Shape" fill="#000000" fill-rule="nonzero"></path>
            </g>
        </g>
    </g>
</svg>