<?xml version="1.0" encoding="utf-8"?>
<!-- Generator: Adobe Illustrator 19.1.0, SVG Export Plug-In . SVG Version: 6.00 Build 0)  -->
<svg version="1.1" id="Layer_1" xmlns="http://www.w3.org/2000/svg" xmlns:xlink="http://www.w3.org/1999/xlink" x="0px" y="0px"
	 viewBox="0 0 425 685" enable-background="new 0 0 425 685" xml:space="preserve">
<rect y="0" fill="#4D4D4D" width="425" height="685"/>
<g>
	<path fill="#F7EC6F" d="M215.8,566.8c-23.1,0-41.9-18.8-41.9-41.9c0-23.1,18.8-41.9,41.9-41.9s41.9,18.8,41.9,41.9
		C257.7,548,238.9,566.8,215.8,566.8z"/>
	<path fill="#F390A2" d="M215.4,493.7c-17.1,0-31.1,13.9-31.1,31.1c0,17.1,13.9,31.1,31.1,31.1s31.1-13.9,31.1-31.1
		C246.5,507.7,232.5,493.7,215.4,493.7z"/>
	<g>
		<path fill="#FA92A3" d="M162.6,630.2c-3.7,0-6.7-1.3-9.7-5.3l4.5-3.9c2,2.6,3.4,3.4,5.2,3.4c3.3,0,5.5-2.5,5.5-6.3v-21.4h6.2v21.4
			C174.2,625.4,169.4,630.2,162.6,630.2z"/>
		<path fill="#FA92A3" d="M196.7,630.2c-7.2,0-13.5-5.3-13.5-13.9v-19.6h6.2v19.3c0,5.1,3,8.4,7.3,8.4s7.3-3.3,7.3-8.4v-19.3h6.2
			v19.6C210.2,625,203.9,630.2,196.7,630.2z"/>
		<path fill="#FA92A3" d="M234.3,630.2c-9.5,0-17.3-7.6-17.3-17c0-9.5,7.9-17,17.3-17c4.2,0,7.9,1.4,11.3,4.2l-3.6,4.5
			c-3.3-2.3-5.1-2.9-7.7-2.9c-6,0-10.9,4.9-10.9,11.1s4.9,11.1,10.9,11.1c2.4,0,4.5-0.7,7.6-2.9l3.7,4.6
			C241.4,629.3,238.2,630.2,234.3,630.2z"/>
		<path fill="#FA92A3" d="M252.1,629.8v-33.1h20.6v5.6h-14.4v8h13.9v5.6h-13.9v8.3h14.4v5.6H252.1z"/>
	</g>
	<g>
		<path fill="#F7EC6F" d="M170.4,588c-4.4,0-7.9-3.5-7.9-7.9c0-4.3,3.6-7.9,7.9-7.9c2.4,0,4.5,1,6.2,3l-1.7,1.4
			c-1.4-1.5-2.8-2.2-4.5-2.2c-3.1,0-5.6,2.5-5.6,5.7c0,3.2,2.4,5.7,5.6,5.7c3,0,5.1-2.1,5.2-4.8h-5.4v-2h7.7v1.1
			C178,584.4,174.9,588,170.4,588z"/>
		<path fill="#F7EC6F" d="M183.3,582.3v5.5H181v-11.7h2.2v1.7c0.8-1,2-1.8,3.8-1.9v2.1C184.2,578.4,183.3,580.4,183.3,582.3z"/>
		<path fill="#F7EC6F" d="M196.6,587.8c-0.3-0.4-0.4-1.1-0.4-1.6c-0.8,0.9-2.3,1.8-3.9,1.8c-2.3,0-3.9-1.2-3.9-3.2
			c0-1.9,1.2-3.9,7.5-4.9c-0.1-1.1-1-1.8-2.4-1.8c-1.4,0-2.3,0.5-3.3,1.2l-1.3-1.5c1.4-1.2,3-1.8,4.8-1.8c2,0,4.5,0.8,4.5,4.1v5
			c0,0.8,0.1,1.8,0.7,2.8H196.6z M196,581.7c-4.3,0.7-5.3,1.8-5.3,3c0,0.9,1,1.3,2,1.3c1.5,0,3.3-1.3,3.3-3.5V581.7z"/>
		<path fill="#F7EC6F" d="M208,588c-1.6,0-3-0.7-3.7-1.7v6.1H202v-16.2h2.2v1.5c0.8-0.9,2.1-1.7,3.7-1.7c3.2,0,5.9,2.7,5.9,6
			C213.8,585.2,211.2,588,208,588z M207.9,578c-2.1,0-3.7,1.8-3.7,3.9c0,2.2,1.6,3.9,3.7,3.9c2.1,0,3.7-1.8,3.7-3.9
			C211.6,579.8,210,578,207.9,578z"/>
		<path fill="#F7EC6F" d="M227.7,582.8h-9.4c0.3,1.7,1.9,3.1,3.7,3.1c1.1,0,2.4-0.5,3.3-1.5l1.5,1.4c-1.4,1.5-3.1,2.2-4.9,2.2
			c-3.3,0-6-2.7-6-6c0-3.3,2.7-6,6-6c3.4,0,5.8,2.7,5.8,6C227.7,582.3,227.7,582.8,227.7,582.8z M221.9,578c-1.8,0-3.3,1.2-3.6,2.9
			h7C225,579.1,223.7,578,221.9,578z"/>
		<path fill="#F7EC6F" d="M236.9,574.3c-0.6-0.6-1.2-0.8-1.7-0.8c-1.1,0-2,0.7-2,2.6h3.6v2h-3.6v9.7H231v-9.7h-1.9v-2h1.9
			c0.1-3.1,1.9-4.7,4.1-4.7c1.2,0,2.3,0.5,3.3,1.5L236.9,574.3z"/>
		<path fill="#F7EC6F" d="M241.2,582.3v5.5H239v-11.7h2.2v1.7c0.8-1,2-1.8,3.8-1.9v2.1C242.2,578.4,241.2,580.4,241.2,582.3z"/>
		<path fill="#F7EC6F" d="M255.2,587.8v-1.2c-0.6,0.7-1.8,1.4-3.3,1.4c-2.7,0-4.7-1.9-4.7-5v-6.8h2.2v6.7c0,2,1.2,3.1,2.8,3.1
			c1.6,0,2.9-1.2,2.9-3.1v-6.6h2.2v11.7H255.2z"/>
		<path fill="#F7EC6F" d="M262.6,574.3c-0.8,0-1.5-0.7-1.5-1.5c0-0.8,0.6-1.5,1.5-1.5c0.8,0,1.4,0.7,1.4,1.5
			C264,573.7,263.4,574.3,262.6,574.3z M261.4,587.8v-11.7h2.2v11.7H261.4z"/>
		<path fill="#F7EC6F" d="M270.5,578.1v9.7h-2.2v-9.7H266v-2h2.3v-3.7h2.2v3.7h3v2H270.5z"/>
	</g>
</g>
<path fill="#FFFFFF" d="M94.9,83.6h-7.1v15.1h-5.4V62.2h12.4c6.7,0,11.6,4.6,11.6,10.7C106.5,79,101.6,83.6,94.9,83.6z M94.8,67h-7
	v11.8h7c3.9,0,6.2-2.7,6.2-5.9C101.1,69.7,98.8,67,94.8,67z"/>
<path fill="#FFFFFF" d="M136.6,98.6l-15.4-18.9v-0.5h5.7c4.2,0,7-2.4,7-6.1c0-3.7-2.8-6.1-7-6.1h-7v31.7h-5.4V62.2h12.8
	c7.6,0,12,4.8,12,11c0,5.4-4,9.8-9,10l13,15.5H136.6z"/>
<path fill="#FFFFFF" d="M164.7,99.1c-10.4,0-18.8-8.3-18.8-18.7c0-10.4,8.4-18.7,18.8-18.7c10.4,0,18.8,8.3,18.8,18.7
	C183.6,90.7,175.1,99.1,164.7,99.1z M164.7,66.8c-7.4,0-13.3,6-13.3,13.6S157.3,94,164.7,94c7.4,0,13.4-6,13.4-13.6
	S172.2,66.8,164.7,66.8z"/>
<path fill="#FFFFFF" d="M195,99.1c-4,0-7.2-1.5-10-5.2l3.9-3.3c1.9,2.5,3.8,3.5,6.1,3.5c4.2,0,7.1-3.2,7.1-8.1V62.2h5.4V86
	C207.5,93.8,202.3,99.1,195,99.1z"/>
<path fill="#FFFFFF" d="M230.6,99.1c-7.8,0-14.5-5.8-14.5-15.2V62.2h5.4v21.4c0,6.4,3.8,10.5,9.1,10.5c5.4,0,9.2-4.1,9.2-10.5V62.2
	h5.4v21.7C245.2,93.3,238.5,99.1,230.6,99.1z"/>
<path fill="#FFFFFF" d="M270.7,99.1c-10.4,0-18.8-8.3-18.8-18.7c0-10.4,8.5-18.7,18.8-18.7c4.6,0,8.7,1.6,11.8,4.2l-3.2,3.9
	c-3.3-2.3-5.5-3.1-8.6-3.1c-7.4,0-13.4,6-13.4,13.6S263.3,94,270.7,94c3,0,5.4-0.9,8.5-3.1l3.2,4C278.5,98,274.9,99.1,270.7,99.1z"
	/>
<path fill="#FFFFFF" d="M290.3,98.6V62.2h22V67h-16.6v10.8h15.9v4.8h-15.9v11.2h16.6v4.8H290.3z"/>
<path fill="#FFFFFF" d="M343.9,98.6l-15.4-18.9v-0.5h5.7c4.2,0,7-2.4,7-6.1c0-3.7-2.8-6.1-7-6.1h-7v31.7h-5.4V62.2h12.8
	c7.6,0,12,4.8,12,11c0,5.4-4,9.8-9,10l13,15.5H343.9z"/>
</svg>
