<?xml version="1.0" encoding="UTF-8" standalone="no"?>
<!-- Generator: Adobe Illustrator 18.0.0, SVG Export Plug-In . SVG Version: 6.00 Build 0)  -->

<svg
   xmlns:dc="http://purl.org/dc/elements/1.1/"
   xmlns:cc="http://creativecommons.org/ns#"
   xmlns:rdf="http://www.w3.org/1999/02/22-rdf-syntax-ns#"
   xmlns:svg="http://www.w3.org/2000/svg"
   xmlns="http://www.w3.org/2000/svg"
   xmlns:sodipodi="http://sodipodi.sourceforge.net/DTD/sodipodi-0.dtd"
   xmlns:inkscape="http://www.inkscape.org/namespaces/inkscape"
   version="1.1"
   id="Layer_1"
   x="0px"
   y="0px"
   viewBox="0 0 136.9 114.8"
   enable-background="new 0 0 136.9 114.8"
   xml:space="preserve"
   inkscape:version="0.91 r13725"
   sodipodi:docname="wizard_GUI.svg"><metadata
     id="metadata53"><rdf:RDF><cc:Work
         rdf:about=""><dc:format>image/svg+xml</dc:format><dc:type
           rdf:resource="http://purl.org/dc/dcmitype/StillImage" /></cc:Work></rdf:RDF></metadata><defs
     id="defs51" /><sodipodi:namedview
     pagecolor="#ffffff"
     bordercolor="#666666"
     borderopacity="1"
     objecttolerance="10"
     gridtolerance="10"
     guidetolerance="10"
     inkscape:pageopacity="0"
     inkscape:pageshadow="2"
     inkscape:window-width="1680"
     inkscape:window-height="1001"
     id="namedview49"
     showgrid="false"
     inkscape:zoom="2.0557491"
     inkscape:cx="68.449997"
     inkscape:cy="57.400002"
     inkscape:window-x="0"
     inkscape:window-y="1"
     inkscape:window-maximized="1"
     inkscape:current-layer="Layer_1" /><rect
     x="16.3"
     y="10.9"
     fill="none"
     stroke="#a45c94"
     stroke-width="1.3469"
     stroke-miterlimit="10"
     width="103.6"
     height="67.5"
     id="rect3"
     style="stroke:#a45c94;stroke-opacity:1" /><path
     fill="none"
     stroke="#a45c94"
     stroke-width="0.7078"
     stroke-miterlimit="10"
     d="M55.2,62.5H23.4c-0.4,0-0.7-0.4-0.7-0.9l0,0  c0-0.5,0.3-0.9,0.7-0.9h31.8c0.4,0,0.7,0.4,0.7,0.9l0,0C55.9,62.1,55.5,62.5,55.2,62.5z"
     id="path5"
     style="stroke:#a45c94;stroke-opacity:1" /><path
     fill="#a45c94"
     d="M38.1,62.5H23.4c-0.4,0-0.7-0.4-0.7-0.9l0,0c0-0.5,0.3-0.9,0.7-0.9h14.7c0.4,0,0.7,0.4,0.7,0.9l0,0  C38.7,62.1,38.4,62.5,38.1,62.5z"
     id="path7"
     style="stroke:#a45c94;stroke-opacity:1;fill:#a45c94;fill-opacity:1" /><path
     fill="none"
     stroke="#a45c94"
     stroke-width="0.7078"
     stroke-miterlimit="10"
     d="M55.2,67.8H23.4c-0.4,0-0.7-0.4-0.7-0.9l0,0  c0-0.5,0.3-0.9,0.7-0.9h31.8c0.4,0,0.7,0.4,0.7,0.9l0,0C55.9,67.4,55.5,67.8,55.2,67.8z"
     id="path9"
     style="stroke:#a45c94;stroke-opacity:1" /><path
     fill="#a45c94"
     d="M44.2,67.8H23.4c-0.4,0-0.7-0.4-0.7-0.9l0,0c0-0.5,0.3-0.9,0.7-0.9h20.8c0.4,0,0.7,0.4,0.7,0.9l0,0  C44.8,67.4,44.6,67.8,44.2,67.8z"
     id="path11"
     style="stroke:#a45c94;stroke-opacity:1;fill:#a45c94;fill-opacity:1" /><path
     fill="none"
     stroke="#a45c94"
     stroke-width="0.7078"
     stroke-miterlimit="10"
     d="M55.2,73H23.4c-0.4,0-0.7-0.4-0.7-0.9l0,0  c0-0.5,0.3-0.9,0.7-0.9h31.8c0.4,0,0.7,0.4,0.7,0.9l0,0C55.9,72.6,55.5,73,55.2,73z"
     id="path13"
     style="stroke:#a45c94;stroke-opacity:1" /><path
     fill="#a45c94"
     d="M49.4,73h-26c-0.4,0-0.7-0.4-0.7-0.9l0,0c0-0.5,0.3-0.9,0.7-0.9h26c0.4,0,0.7,0.4,0.7,0.9l0,0  C50.1,72.6,49.8,73,49.4,73z"
     id="path15"
     style="stroke:#a45c94;stroke-opacity:1;fill:#a45c94;fill-opacity:1" /><rect
     x="16.3"
     y="10.9"
     fill="none"
     stroke="#a45c94"
     stroke-width="1.3469"
     stroke-miterlimit="10"
     width="103.6"
     height="2.4"
     id="rect17"
     style="stroke:#a45c94;stroke-opacity:1" /><circle
     fill="none"
     stroke="#a45c94"
     stroke-width="1.3469"
     stroke-miterlimit="10"
     cx="69.3"
     cy="39.6"
     r="13.9"
     id="circle19"
     style="stroke:#a45c94;stroke-opacity:1" /><g
     id="g21"
     style="stroke:#a45c94;stroke-opacity:1"><g
       id="g23"
       style="stroke:#a45c94;stroke-opacity:1"><path
         fill="none"
         stroke="#a45c94"
         stroke-width="1.2523"
         stroke-miterlimit="10"
         d="M79.8,33.5c1.1,1.9,1.3,5.2,0,5.7    c-1.3,0.5-7.2,0.3-10.2,0.2c1.3-2.7,4.1-7.9,5.2-8.8C75.9,29.7,78.7,31.6,79.8,33.5z"
         id="path25"
         style="stroke:#a45c94;stroke-opacity:1" /></g><g
       id="g27"
       style="stroke:#a45c94;stroke-opacity:1"><path
         fill="none"
         stroke="#a45c94"
         stroke-width="1.2523"
         stroke-miterlimit="10"
         d="M79.8,45.6c-1.1,1.9-3.8,3.7-4.9,2.9    c-1.1-0.9-3.9-6.1-5.2-8.8c3-0.2,8.9-0.4,10.2,0.1C81.2,40.4,80.9,43.7,79.8,45.6z"
         id="path29"
         style="stroke:#a45c94;stroke-opacity:1" /></g><g
       id="g31"
       style="stroke:#a45c94;stroke-opacity:1"><path
         fill="none"
         stroke="#a45c94"
         stroke-width="1.2523"
         stroke-miterlimit="10"
         d="M69.3,51.7c-2.2,0-5.2-1.5-5-2.8    s3.3-6.4,5-8.9c1.7,2.5,4.8,7.5,5,8.9S71.5,51.7,69.3,51.7z"
         id="path33"
         style="stroke:#a45c94;stroke-opacity:1" /></g><g
       id="g35"
       style="stroke:#a45c94;stroke-opacity:1"><path
         fill="none"
         stroke="#a45c94"
         stroke-width="1.2523"
         stroke-miterlimit="10"
         d="M58.9,45.6c-1.1-1.9-1.3-5.2,0-5.7    c1.3-0.5,7.2-0.3,10.2-0.2c-1.3,2.7-4.1,7.9-5.2,8.8C62.8,49.4,60,47.6,58.9,45.6z"
         id="path37"
         style="stroke:#a45c94;stroke-opacity:1" /></g><g
       id="g39"
       style="stroke:#a45c94;stroke-opacity:1"><path
         fill="none"
         stroke="#a45c94"
         stroke-width="1.2523"
         stroke-miterlimit="10"
         d="M58.9,33.5c1.1-1.9,3.8-3.7,4.9-2.9    c1.1,0.9,3.9,6.1,5.2,8.8c-3,0.2-8.9,0.4-10.2-0.1C57.5,38.8,57.8,35.5,58.9,33.5z"
         id="path41"
         style="stroke:#a45c94;stroke-opacity:1" /></g><g
       id="g43"
       style="stroke:#a45c94;stroke-opacity:1"><path
         fill="none"
         stroke="#a45c94"
         stroke-width="1.2523"
         stroke-miterlimit="10"
         d="M69.3,27.5c2.2,0,5.2,1.5,5,2.8    s-3.3,6.4-5,8.9c-1.7-2.5-4.8-7.5-5-8.9S67.1,27.5,69.3,27.5z"
         id="path45"
         style="stroke:#a45c94;stroke-opacity:1" /></g></g><path
     fill="none"
     stroke="#a45c94"
     stroke-width="1.3469"
     stroke-miterlimit="10"
     d="M130,114.8H6.9c-3.8,0-6.9-3.1-6.9-6.9V6.9  C0,3.1,3.1,0,6.9,0H130c3.8,0,6.9,3.1,6.9,6.9v101.1C136.9,111.7,133.9,114.8,130,114.8z"
     id="path47"
     style="stroke:#a45c94;stroke-opacity:1" /></svg>