<?xml version="1.0" encoding="UTF-8" standalone="no"?>
<!-- Created with Inkscape (http://www.inkscape.org/) -->

<svg xmlns="http://www.w3.org/2000/svg" width="864" height="358" version="1.1">
  <g id="g1" transform="translate(-88.247957,-1761.1929)">
    <g id="g2" transform="scale(2.5964,2.5964)">
      <path id="path1" style="fill:#663366" d="m 62.777261,682.66638 c 0,0 -22.84339,99.66531 -22.84339,99.66531 0.0066,0 60.091419,0 60.104559,0 26.42484,0 105.67884,0 105.67884,0 1.2e-4,0 54.96371,0 54.96371,0 -6.54796,-0.57145 -11.71765,-2.87011 -14.79791,-7.06027 -0.57133,-0.77509 -1.04346,-1.60999 -1.45715,-2.48348 -0.26277,-0.64359 -0.5098,-1.293 -0.75945,-1.94971 -0.65682,-2.08863 -0.91869,-4.40613 -0.80043,-6.87568 0.32842,-6.883 3.5581,-15.07028 9.15381,-23.64386 5.94375,-9.11134 14.55819,-18.66102 25.22417,-27.52283 2.39067,-1.98475 4.86262,-3.94473 7.45021,-5.84947 3.19852,-2.35311 6.4217,-4.52039 9.64637,-6.54715 11.881,-7.48001 23.73254,-12.71397 34.23437,-15.37255 -10.03552,3.27397 -21.3098,8.83212 -32.4487,16.39877 -0.40067,0.27054 -0.79632,0.5477 -1.19049,0.82098 -6.18016,4.28216 -11.77917,8.82996 -16.66554,13.42273 -15.72323,14.78398 -24.0338,30.10322 -20.25732,39.07804 0.26928,0.61733 0.59027,1.20681 0.96458,1.76513 4.05888,5.97 14.11814,7.00193 26.86612,3.7969 0.86698,-0.21666 1.73396,-0.4622 2.62708,-0.71835 4.07201,-1.17554 8.39527,-2.76338 12.8482,-4.72051 1.07052,-0.47293 2.15256,-0.95887 3.24282,-1.4778 0.11164,-0.0525 0.21666,-0.10502 0.3283,-0.16415 14.05501,-6.98345 24.85648,-15.01891 27.19453,-19.84684 0.51232,-1.05019 0.63548,-1.94559 0.28732,-2.64763 -1.66821,-3.38242 -13.34145,-1.09733 -27.48185,5.02838 -1.13615,0.49267 -2.28554,0.99951 -3.44806,1.53933 0.94574,-0.87805 1.93019,-1.75953 2.93495,-2.62708 1.60257,-1.38055 3.26176,-2.73051 5.02848,-4.0638 2.76498,-2.09376 5.56032,-3.98662 8.31229,-5.66465 12.88587,-9.72159 19.40027,-18.91764 18.04072,-22.33031 -0.25615,-0.64301 -0.80122,-1.08524 -1.64195,-1.35464 -2.68621,-0.85442 -7.58902,0.16541 -13.5459,2.60665 -4.91274,2.01501 -10.55524,5.00338 -16.27572,8.72277 0,0 -0.77988,0.51312 -0.77988,0.51312 0,0 -0.14372,0.0821 -0.14372,0.0821 0,0 -2.75013,1.82665 -2.75013,1.82665 0,0 1.58031,-2.89385 1.58031,-2.89385 2.34467,-4.2921 6.16384,-8.77026 10.91882,-12.93028 3.48744,-3.04157 7.47167,-5.90734 11.76034,-8.41491 1.6222,-0.94974 3.24201,-1.83178 4.86422,-2.62708 1.6617,-0.81184 3.32409,-1.53328 4.9463,-2.17561 4.71308,-1.86387 9.89054,-4.21767 13.81404,-4.52565 -0.3573,0 -11.69996,1.22131 -11.69996,1.22131 0,0 -37.14877,0 -37.14877,0 0,0 -163.80326,0 -163.80326,0 0,0 -73.075879,0 -73.075879,0 z m 177.933719,0.14371 c -0.64359,9.82331 1.26103,24.21153 5.58258,40.18623 0.76846,2.84249 1.60497,5.73531 2.52446,8.66124 0.57144,1.80679 1.16092,3.58527 1.76512,5.33624 -0.35467,0.52145 -0.71173,1.03969 -1.04677,1.55988 -5.39206,8.26343 -8.54378,16.07287 -9.3385,22.86386 -2.27904,-7.63171 -3.99473,-15.99091 -4.96685,-24.85477 -0.27579,-2.53965 -0.49165,-5.05098 -0.63616,-7.53229 -1.06401,-18.02383 1.28888,-34.36245 6.11612,-46.22039 z m -107.60809,12.78645 c 0.12294,-0.003 0.24417,0 0.3694,0 0,0 24.28013,0 24.28013,0 2.07539,0 3.68036,0.38903 4.82313,1.16994 1.13615,0.78548 1.56228,1.80154 1.29299,3.03757 0,0 -2.89385,13.07388 -2.89385,13.07388 0,0 -8.55862,0 -8.55862,0 0,0 2.81178,-12.72492 2.81178,-12.72492 0,0 -21.42715,0 -21.42715,0 0,0 -7.73764,34.97305 -7.73764,34.97305 0,0 -2.79135,12.6635 -2.79135,12.6635 0,0 21.40671,0 21.40671,0 0,0 0.0206,-0.0821 0.0206,-0.0821 0,0 4.28958,-19.37493 4.28958,-19.37493 0,0 -10.05685,0 -10.05685,0 0,0 0.96469,-4.37155 0.96469,-4.37155 0,-1.1e-4 18.61537,0 18.61537,0 0,-1.1e-4 -5.33624,24.1774 -5.33624,24.1774 -0.0723,0.34417 -0.19874,0.65592 -0.36951,0.9647 -0.44006,0.80122 -1.20761,1.4875 -2.27812,2.05244 -1.48431,0.78148 -3.26085,1.16982 -5.33636,1.16982 0,0 -24.25947,0 -24.25947,0 -2.07539,0 -3.68036,-0.38834 -4.82324,-1.16982 -1.13615,-0.7816 -1.56884,-1.77974 -1.29299,-3.01714 0,0 10.69314,-48.33436 10.69314,-48.33436 0.27579,-1.23603 1.13615,-2.25209 2.62696,-3.03757 0.0526,-0.0283 0.11176,-0.0347 0.16427,-0.0615 1.3608,-0.6816 2.95778,-1.0648 4.80269,-1.10841 z m 38.05183,0 c -1.2e-4,0 30.5604,0 30.5604,0 2.04913,0 3.65981,0.38903 4.8027,1.16994 1.14927,0.78548 1.58933,1.80154 1.31354,3.03757 0,0 -5.70575,25.77837 -5.70575,25.77837 -0.26928,1.22816 -1.15019,2.23018 -2.64763,3.01703 -1.49744,0.78947 -3.26005,1.19037 -5.31581,1.19037 0,0 -22.20714,0 -22.20714,0 0,0 -4.28947,19.35427 -4.28947,19.35427 0,0 -0.69781,3.18128 -0.69781,3.18128 0,0 -8.37392,0 -8.37392,0 0,0 0.63628,-2.87342 0.63628,-2.87342 0,0 11.92461,-53.85541 11.92461,-53.85541 z m 42.21812,0 c 0,0 8.37381,0 8.37381,0 0,0 -9.48211,42.83397 -9.48211,42.83397 0,0 -2.07299,9.35905 -2.07299,9.35905 0,0 20.03165,0 20.03165,0 0.21015,1.53614 0.45557,3.045 0.71835,4.53581 0,0 -30.12948,0 -30.12948,0 0,0 2.38074,-10.75466 2.38074,-10.75466 0,0 10.18003,-45.97417 10.18003,-45.97417 z m -34.84999,4.55647 c 0,0 -5.56214,25.08045 -5.56214,25.08045 0,0 20.87316,0 20.87316,0 0,0 5.54149,-25.08045 5.54149,-25.08045 0,0 -20.85251,0 -20.85251,0 z m -44.50903,59.19428 c 0.082,-0.003 0.16381,0 0.24634,0 0.972,0 1.82094,0.17065 2.50391,0.49256 0.72909,0.34154 1.25042,0.84883 1.53934,1.51879 0.28241,0.6502 0.35626,1.38819 0.20524,2.19604 0,0 -0.0615,0.30787 -0.0615,0.30787 0,0 -2.40129,0 -2.40129,0 -1.1e-4,0 0.0204,-0.28732 0.0204,-0.28732 0.0621,-0.56448 -0.008,-1.0083 -0.22567,-1.31354 -0.0284,-0.0382 -0.0696,-0.0888 -0.10274,-0.12317 -0.0541,-0.0554 -0.1355,-0.11849 -0.20513,-0.16415 -0.33606,-0.21175 -0.86161,-0.32841 -1.53933,-0.32841 -0.89986,0 -1.57221,0.15673 -2.0319,0.47201 -0.44667,0.30867 -0.72908,0.65352 -0.82098,1.06732 -0.092,0.4203 0.059,0.64119 0.16415,0.75933 0.003,0.003 0.0166,0.0169 0.0205,0.0205 0.1331,0.11335 0.59519,0.37933 2.0319,0.71836 1.30041,0.31528 2.16157,0.59849 2.64763,0.84152 0.73559,0.3743 1.2495,0.85956 1.51878,1.45714 0.26929,0.5912 0.32842,1.28318 0.16415,2.0319 -0.16415,0.72909 -0.53605,1.40144 -1.08775,2.0319 -0.54507,0.63046 -1.23877,1.12964 -2.07299,1.4778 -0.82748,0.34154 -1.73544,0.53355 -2.66806,0.53355 -1.18227,0 -2.13132,-0.17888 -2.87342,-0.53355 -0.77498,-0.36779 -1.33409,-0.94825 -1.66239,-1.70359 -0.31529,-0.73548 -0.38263,-1.5705 -0.20536,-2.48337 0,0 0.0616,-0.28732 0.0616,-0.28732 0,0 2.36031,0 2.36031,0 0,0 -0.0205,0.28732 -0.0205,0.28732 -0.0591,0.54507 -8e-4,0.98513 0.1436,1.31354 0.13801,0.31529 0.40067,0.57635 0.82098,0.77988 0.44667,0.21678 1.00487,0.32842 1.64195,0.32842 0.57144,0 1.09357,-0.096 1.55988,-0.26677 0.45969,-0.16427 0.82509,-0.38093 1.08775,-0.65683 0.25616,-0.27579 0.40638,-0.56733 0.47202,-0.88251 0.0657,-0.28241 0.0501,-0.52133 -0.0615,-0.71835 -0.12477,-0.21015 -0.37191,-0.39656 -0.75945,-0.55409 0,-1.2e-4 -2.01135,-0.5953 -2.01135,-0.5953 -1.12302,-0.28241 -1.87916,-0.5517 -2.31921,-0.82098 -0.5977,-0.35456 -1.02862,-0.80945 -1.25202,-1.35452 -0.22328,-0.53857 -0.24702,-1.13547 -0.10251,-1.78567 0.15103,-0.69621 0.48675,-1.35863 1.00568,-1.94971 0.52544,-0.5977 1.2035,-1.06652 2.01135,-1.37518 0.71424,-0.2678 1.46582,-0.42488 2.25757,-0.45147 z m 21.55043,0.041 c 0.1299,-0.01 0.25205,0 0.38994,0 0,0 1.47769,0.16415 1.47769,0.16415 0,0 0.49257,0.0411 0.49257,0.0411 1.1e-4,0 -0.71825,1.82665 -0.71825,1.82665 0,0 -0.14371,0.28732 -0.14371,0.28732 0,0 -1.12885,-0.10262 -1.12885,-0.10262 -0.33332,0 -0.57817,0.0515 -0.7389,0.16427 -0.0106,0.008 -0.0312,0.0324 -0.041,0.041 -0.0216,0.0189 -0.0578,0.0518 -0.0821,0.0822 -0.0989,0.12957 -0.21917,0.36118 -0.30787,0.77989 0,0 -0.0427,0.17727 -0.0821,0.32841 0.51881,0 1.76501,0 1.76501,0 0,0 -0.45147,2.0319 -0.45147,2.0319 0,0 -1.2906,0 -1.72403,0 -0.13139,0.59107 -1.74458,7.8196 -1.74458,7.8196 0,0 -2.38086,0 -2.38086,0 0,0 1.54755,-6.94612 1.74458,-7.8196 -0.40067,0 -1.37507,0 -1.37507,0 0,0 0.45147,-2.0319 0.45147,-2.0319 0,0 0.98022,0 1.35464,0 0.0656,-0.28241 0.16414,-0.63628 0.16414,-0.63628 0.14452,-0.65683 0.29554,-1.12884 0.49257,-1.45726 0.2694,-0.45318 0.64941,-0.83239 1.12884,-1.10829 0.39497,-0.22945 0.89438,-0.36666 1.45726,-0.41049 z m 5.6852,0.10262 c 0,0 -0.62235,2.80036 -0.77988,3.5097 0.45969,0 1.53922,0 1.53922,0 0,0 -0.45147,2.0319 -0.45147,2.0319 0,0 -1.13216,0 -1.53934,0 -0.12476,0.5647 -1.10829,4.9463 -1.10829,4.9463 0,0 -0.0821,0.52623 -0.0821,0.67726 1.2e-4,0.005 -4.5e-4,0.0168 0,0.0205 3.4e-4,0.002 -4.5e-4,0.0192 0,0.0205 5.7e-4,10e-4 0.0196,-8e-4 0.0204,0 0,0 0.24633,0.0204 0.24633,0.0204 0,0 1.12885,-0.0821 1.12885,-0.0821 0,0 -0.12317,1.82665 -0.12317,1.82665 0,0 0.0205,0.32841 0.0205,0.32841 0,0 -1.62141,0.1847 -1.62141,0.1847 -0.64359,0 -1.11572,-0.10502 -1.45726,-0.32841 -0.36117,-0.23641 -0.57133,-0.54998 -0.65671,-0.94404 -0.0131,-0.0723 -0.0411,-0.17739 -0.0411,-0.32841 0,-0.29554 0.0558,-0.79552 0.24634,-1.6625 0,0 0.86276,-3.86506 1.04666,-4.67941 -0.30867,0 -1.12873,0 -1.12873,0 0,0 0.45147,-2.0319 0.45147,-2.0319 0,0 0.80043,0 1.12884,0 0.10513,-0.47293 0.47202,-2.09354 0.47202,-2.09354 0,0 1.90884,-1.00567 1.90884,-1.00567 0,0 0.77988,-0.41049 0.77988,-0.41049 z m -75.631539,0.0821 c 0,0 9.23587,0 9.23587,0 0,0 -0.5131,2.29879 -0.5131,2.29879 0,0 -6.16135,0 -6.75245,0 -0.10506,0.46631 -0.52622,2.35449 -0.67728,3.03757 0.85381,0 5.84937,0 5.84937,0 0,0 -0.51311,2.29867 -0.51311,2.29867 0,0 -5.25827,0 -5.84937,0 -0.12479,0.57144 -1.25198,5.6441 -1.25198,5.6441 0,0 -2.48343,0 -2.48343,0 0,0 2.95548,-13.27913 2.95548,-13.27913 z m 12.37608,3.24293 c 0.09266,-0.0114 0.19392,0 0.28731,0 0.5911,0 1.13707,0.17979 1.66248,0.5541 0,0 0.328389,0.22579 0.328389,0.22579 0,0 -1.272509,2.09342 -1.272509,2.09342 0,0 -0.34892,-0.24634 -0.34892,-0.24634 -0.25612,-0.16415 -0.53196,-0.24622 -0.82095,-0.24622 -0.24958,0 -0.4819,0.0887 -0.71834,0.24622 -0.24958,0.16427 -0.45811,0.38184 -0.61571,0.67738 -0.27585,0.50569 -0.47783,1.07211 -0.61575,1.68293 0,0 -1.10832,5.04892 -1.10832,5.04892 0,0 -2.38079,0 -2.38079,0 0,0 2.19611,-9.8515 2.19611,-9.8515 0,0 2.2166,0 2.2166,0 0,0 -0.07638,0.29874 -0.10264,0.41038 0.10511,-0.0788 0.21591,-0.1871 0.30789,-0.24623 0.3181,-0.18983 0.65411,-0.30832 0.98515,-0.34885 z m 7.060299,0 c 0.14335,-0.0109 0.28446,0 0.43102,0 1.3398,0 2.35368,0.46951 3.01703,1.39562 0.41377,0.59758 0.63628,1.33649 0.63628,2.21659 0,0.48595 -0.0599,1.00899 -0.18472,1.58032 0,0 -0.18472,0.71835 -0.18472,0.71835 0,0 -6.02097,0 -6.6909,0 -0.0131,0.1379 -0.0205,0.28572 -0.0205,0.41049 0,0.51231 0.10511,0.91538 0.32838,1.21092 0.10612,0.14451 0.22914,0.27465 0.36944,0.36939 0.26454,0.1726 0.60601,0.26689 1.00572,0.26689 0.48599,0 0.9129,-0.1339 1.31353,-0.38994 0.38091,-0.24303 0.74543,-0.63137 1.06726,-1.16994 0,0 2.54499,0 2.54499,0 0,0 -0.22574,0.49256 -0.22574,0.49256 -0.48603,0.98524 -1.16417,1.7536 -2.01139,2.29879 -0.84722,0.54507 -1.85948,0.84141 -2.97601,0.84141 -1.45145,0 -2.53185,-0.46951 -3.20175,-1.39562 -0.663349,-0.90636 -0.806199,-2.15917 -0.451559,-3.73538 0.354699,-1.60257 1.062339,-2.88324 2.093469,-3.77647 0.92422,-0.80135 1.97295,-1.24585 3.14021,-1.33398 z m 10.69313,0 c 0.14326,-0.0109 0.28446,0 0.43092,0 1.33991,0 2.3538,0.46951 3.01714,1.39562 0.41379,0.59758 0.63616,1.33649 0.63616,2.21659 0,0.47944 -0.0599,0.99495 -0.1847,1.55977 0,0 -0.18469,0.7389 -0.18469,0.7389 0,0 -6.02097,0 -6.69087,0 -0.007,0.092 -0.014,0.17488 -0.0205,0.26677 -0.005,0.0345 0.002,0.0869 0,0.12317 -1.9e-4,0.006 0,0.0148 0,0.0205 0,0.0985 0.0139,0.19543 0.0205,0.28732 0.0328,0.37442 0.13054,0.68719 0.30786,0.9236 0.0338,0.046 0.0655,0.10274 0.1026,0.14372 0.30081,0.32179 0.72656,0.49256 1.27251,0.49256 0.48602,0 0.91945,-0.1339 1.3135,-0.38994 0.38104,-0.24303 0.74552,-0.63137 1.06732,-1.16994 0,0 2.56544,0 2.56544,0 0,0 -0.24623,0.49256 -0.24623,0.49256 -0.48606,0.98524 -1.16412,1.7536 -2.01135,2.29879 -0.84723,0.54507 -1.85953,0.84141 -2.976,0.84141 -1.45149,0 -2.53189,-0.46951 -3.20178,-1.39562 -0.43346,-0.59108 -0.63624,-1.34391 -0.63624,-2.23714 0,-0.1379 0.007,-0.28652 0.0205,-0.43104 0.0263,-0.34142 0.0788,-0.68628 0.16419,-1.0672 0.35465,-1.59595 1.0418,-2.88324 2.07293,-3.77647 0.92419,-0.80135 1.99344,-1.24585 3.16076,-1.33398 z m 29.12369,0 c 0.14669,-0.0113 0.28161,0 0.43104,0 1.36616,0 2.41613,0.46209 3.0991,1.37507 0.67657,0.91287 0.84072,2.14434 0.49267,3.69429 -0.26928,1.20852 -0.65842,2.18463 -1.19048,2.89397 -0.53195,0.70933 -1.21001,1.28888 -2.01135,1.68293 -0.79461,0.39405 -1.63614,0.59519 -2.48337,0.59519 -1.39242,0 -2.42925,-0.47613 -3.09921,-1.39562 -0.43343,-0.58457 -0.65671,-1.33728 -0.65671,-2.23714 0,-0.48594 0.0533,-1.00236 0.18469,-1.58031 0.39405,-1.76022 1.19859,-3.10081 2.38075,-3.96117 0.86778,-0.62647 1.82619,-0.98833 2.85287,-1.06721 z m 36.06102,0 c 0.17317,-0.0107 0.33344,0 0.51311,0 0.82749,0 1.47769,0.0837 1.97026,0.28732 0.52544,0.21016 0.89814,0.50729 1.10829,0.86196 0.20365,0.33492 0.30787,0.74632 0.30787,1.25201 0,0 -0.24622,1.49824 -0.24622,1.49824 0,0 -0.45159,2.0319 -0.45159,2.0319 -0.38754,1.73385 -0.47281,2.38405 -0.49256,2.62708 -0.0197,0.32841 0.0106,0.6485 0.10262,0.94415 0,0 0.16415,0.53354 0.16415,0.53354 0,0 -2.42184,0 -2.42184,0 0,0 -0.10262,-0.30786 -0.10262,-0.30786 -0.0394,-0.14441 -0.0279,-0.3283 -0.041,-0.49257 -0.4598,0.28241 -0.92029,0.53286 -1.33409,0.67726 -0.61082,0.21027 -1.24459,0.32842 -1.88829,0.32842 -1.1164,0 -1.9432,-0.29063 -2.44239,-0.86196 -0.38081,-0.42031 -0.55409,-0.93422 -0.55409,-1.51879 0,-0.22328 0.0296,-0.45478 0.0821,-0.6978 0.11164,-0.49919 0.31449,-0.96139 0.63628,-1.37519 0.31528,-0.40718 0.68799,-0.7421 1.10829,-0.98513 0.40718,-0.24302 0.86116,-0.41539 1.33409,-0.53365 0,0 1.45726,-0.24623 1.45726,-0.24623 1.12302,-0.13139 1.96124,-0.29474 2.56544,-0.47213 0.0131,-0.0656 0.0411,-0.1436 0.0411,-0.1436 0.0952,-0.42259 0.0833,-0.74027 -0.0205,-0.90305 -0.008,-0.0105 -0.0324,-0.0321 -0.0411,-0.0411 -0.0221,-0.0236 -0.0562,-0.0607 -0.0821,-0.0821 -0.24702,-0.19543 -0.66824,-0.28732 -1.23147,-0.28732 -0.63708,0 -1.10829,0.10422 -1.43659,0.30786 -0.32191,0.20354 -0.61985,0.57624 -0.88262,1.1083 0,0 -2.48337,0 -2.48337,0 0,0 0.22568,-0.49256 0.22568,-0.49256 0.29554,-0.68308 0.64781,-1.24962 1.08786,-1.68305 0.44006,-0.43343 1.03444,-0.76927 1.72403,-1.00568 0.52841,-0.17442 1.10556,-0.29017 1.72403,-0.3283 z m 10.40571,0 c 0.0927,-0.0114 0.19394,0 0.28732,0 0.5977,0 1.15761,0.17979 1.68305,0.5541 0,0 0.30786,0.22579 0.30786,0.22579 0,0 -1.27256,2.09342 -1.27256,2.09342 0,0 -0.34884,-0.24634 -0.34884,-0.24634 -0.25616,-0.16415 -0.51814,-0.24622 -0.80043,-0.24622 -0.24965,0 -0.49599,0.0887 -0.73891,0.24622 -0.24965,0.16427 -0.43103,0.38184 -0.59518,0.67738 -0.26929,0.50569 -0.47784,1.07211 -0.61574,1.68293 0,0 -1.12884,5.04892 -1.12884,5.04892 0,0 -2.38086,0 -2.38086,0 0,0 2.19616,-9.8515 2.19616,-9.8515 0,0 2.2166,0 2.2166,0 0,0 -0.0558,0.29874 -0.0821,0.41038 0.10502,-0.0788 0.20936,-0.1871 0.30787,-0.24623 0.313,-0.18983 0.63377,-0.30832 0.96458,-0.34885 z m 7.03983,0 c 0.14315,-0.0109 0.28447,0 0.43093,0 1.33991,0 2.36031,0.46951 3.01713,1.39562 0.42031,0.59758 0.63617,1.33649 0.63617,2.21659 0,0.48595 -0.0804,1.00899 -0.20524,1.58032 0,0 -0.16415,0.71835 -0.16415,0.71835 0,0 -6.02754,0 -6.69088,0 -0.0131,0.1379 -0.0411,0.28572 -0.0411,0.41049 0,0.51231 0.11175,0.91538 0.32841,1.21092 0.0338,0.046 0.086,0.10274 0.12317,0.14372 0.0216,0.0229 0.0594,0.0607 0.0821,0.0821 0.2936,0.26689 0.69325,0.41049 1.19038,0.41049 0.48605,0 0.91298,-0.1339 1.31354,-0.38994 0.38104,-0.24303 0.7389,-0.63137 1.06731,-1.16994 0,0 2.56556,0 2.56556,0 0,0 -0.24634,0.49256 -0.24634,0.49256 -0.48606,0.98524 -1.17074,1.7536 -2.01135,2.29879 -0.85385,0.54507 -1.85291,0.84141 -2.97604,0.84141 -1.45144,0 -2.51134,-0.46951 -3.18118,-1.39562 -0.66333,-0.90636 -0.82017,-2.15917 -0.47213,-3.73538 0.35467,-1.60257 1.04186,-2.88324 2.07299,-3.77647 0.93,-0.80135 1.99457,-1.24585 3.16074,-1.33398 z m -35.93785,0.1847 c 0,0 2.44239,0 2.44239,0 0,0 0.30124,5.84604 0.30786,5.93143 0.0985,-0.20936 0.175,-0.38549 0.1847,-0.41049 0,0 2.68872,-5.52094 2.68872,-5.52094 0,0 2.23714,0 2.23714,0 0,0 0.20525,5.77538 0.20525,5.80826 0.0656,-0.11815 3.058,-5.80826 3.058,-5.80826 0,0 2.42184,0 2.42184,0 0,0 -5.33624,9.8515 -5.33624,9.8515 0,0 -2.19604,0 -2.19604,0 0,0 -0.21267,-5.34194 -0.2258,-5.6441 -0.90636,1.85872 -2.75025,5.6441 -2.75025,5.6441 0,0 -2.25769,0 -2.25769,0 0,0 -0.77988,-9.8515 -0.77988,-9.8515 z m -57.34448,1.86763 c -0.56575,0.0239 -1.07959,0.22785 -1.55984,0.61574 -0.38091,0.30216 -0.63789,0.71675 -0.84148,1.16982 0,1.2e-4 4.04324,0 4.04324,0 0.007,-0.0721 0.0205,-0.16004 0.0205,-0.22568 0,-0.37441 -0.0665,-0.66504 -0.18472,-0.86207 -0.28894,-0.47281 -0.7175,-0.69781 -1.35459,-0.69781 -0.0382,0 -0.0854,-0.002 -0.12313,0 z m 10.69306,0 c -0.56574,0.0239 -1.07953,0.22785 -1.55983,0.61574 -0.38091,0.30216 -0.6313,0.71675 -0.84148,1.16982 0,1.2e-4 4.04326,0 4.04326,0 0.007,-0.0721 0.0206,-0.16004 0.0206,-0.22568 0,-0.37441 -0.0599,-0.66504 -0.1847,-0.86207 -0.0574,-0.096 -0.13504,-0.19154 -0.20524,-0.26677 -0.27431,-0.28332 -0.65169,-0.43104 -1.14939,-0.43104 -0.0382,0 -0.0854,-0.002 -0.12317,0 z m 82.71244,0 c -0.58183,0.0179 -1.12519,0.21495 -1.62152,0.61574 -0.3743,0.30216 -0.63126,0.71675 -0.84141,1.16982 0,1.2e-4 4.0227,0 4.0227,0 0.007,-0.0721 0.0206,-0.16004 0.0206,-0.22568 0,-0.37441 -0.0599,-0.66504 -0.1847,-0.86207 -0.28241,-0.46631 -0.71756,-0.69119 -1.35464,-0.69781 -0.0188,2.3e-4 -0.0223,-5.7e-4 -0.041,0 z m -53.77333,0.0411 c -0.54291,0.0644 -1.0478,0.3122 -1.51879,0.73879 -0.56482,0.51231 -0.97451,1.31685 -1.21092,2.38085 -0.0985,0.44656 -0.14371,0.8284 -0.14371,1.16983 0,0.46631 0.0895,0.8325 0.26688,1.10829 0.0471,0.0709 0.10982,0.14566 0.16415,0.20525 0.292,0.31003 0.69964,0.47213 1.21092,0.47213 0.66334,0 1.24791,-0.24714 1.80611,-0.75945 0.56482,-0.51882 0.96789,-1.33158 1.21092,-2.42184 0.22328,-0.99825 0.19211,-1.74366 -0.12317,-2.21659 -0.30205,-0.45969 -0.74381,-0.67726 -1.35453,-0.67726 -0.10364,0 -0.20729,-0.012 -0.30786,0 z m 37.08713,3.59166 c -0.5582,0.15114 -1.18387,0.2783 -2.01135,0.39006 -0.61733,0.0919 -1.05739,0.1888 -1.31354,0.28731 -0.22328,0.0919 -0.40307,0.21918 -0.55421,0.38995 -0.1444,0.16415 -0.24131,0.33651 -0.28732,0.53365 -0.0131,0.0788 -0.0205,0.16004 -0.0205,0.22568 0,0.005 -1.2e-4,0.0153 0,0.0205 6.8e-4,0.0156 -0.002,0.0465 0,0.0616 0.004,0.0297 0.0124,0.0748 0.0205,0.10251 0.003,0.009 0.0171,0.0322 0.0205,0.0411 0.007,0.0177 0.0116,0.0448 0.0206,0.0616 0.009,0.0166 0.03,0.0455 0.041,0.0615 0.0172,0.0236 0.0406,0.0599 0.0616,0.0821 0.16415,0.1839 0.49176,0.26677 0.96458,0.26677 0.51893,0 1.018,-0.0985 1.4778,-0.3283 0.45319,-0.22339 0.81847,-0.55672 1.08775,-0.94415 0.19703,-0.27579 0.35467,-0.70032 0.49257,-1.25201 z m -125.364659,-16.45612 55.082599,-56.87199 8.99518,0 -13.2998,56.87199 -7.398629,0 3.776339,-16.37106 -23.091518,0 -15.692032,16.37106 -8.372139,0 m 29.675679,-22.22896 18.88598,0 3.48449,-14.27618 c 1.40629,-5.66388 2.75996,-10.38381 4.06102,-14.1598 -2.60007,3.25873 -6.04001,7.1252 -10.31982,11.59939 L 86.12566,729.8159" />
      <path id="path2" style="fill:none;stroke:#663366;stroke-width:3.28386545;stroke-linecap:butt;stroke-linejoin:miter;stroke-miterlimit:4;" d="m 242.27371,772.00406 c 0.26666,0.68537 0.5332,1.3697 0.81093,2.03897 0.42773,0.90933 0.922,1.77974 1.51639,2.59227 3.21051,4.36413 8.58716,6.75366 15.41353,7.34862 0,0 7.34302,0 7.34302,0 2.32173,-0.18116 4.75464,-0.51882 7.27636,-1.01207 4.34906,-0.85043 8.95929,-2.15678 13.74726,-3.90261 3.62705,-1.32245 7.3541,-2.88712 11.13662,-4.70567 8.23729,-3.94873 16.74671,-9.04148 25.09506,-15.18751 2.74946,-2.02242 5.38772,-4.09758 7.92063,-6.20767 2.32173,-1.93179 4.54905,-3.89371 6.67649,-5.8772 5.93759,-5.72219 10.42009,-11.53376 12.95848,-16.63667 2.64386,-5.31398 3.17158,-9.85744 1.00533,-12.71967 -1.32747,-1.7569 -3.54931,-2.69843 -6.40983,-2.91999 12.88633,-9.6692 20.3959,-21.3985 17.70204,-28.79369 -0.85545,-2.36008 -2.73838,-4.12086 -5.43784,-5.09458 -1.19973,-0.43149 -2.54946,-0.70488 -4.02144,-0.82931 0,0 -3.96585,0 -3.96585,0 -5.53772,0.39942 -13.59076,2.38234 -20.42273,5.73052" />
    </g>
    <g id="g3" style="fill:#663366" transform="matrix(1.705222,0,0,1.705222,858.2003,2786.4508)">
      <path id="path3" transform="translate(-451.3678,-427.5077)" d="m 0,36 c 0,0 7.46,0 7.46,0 0,0 3.35,-14 3.35,-14 0,0 12.12,0 12.12,0 0,0 1.56,-6 1.56,-6 0,0 -12.17,0 -12.17,0 0,0 2.02,-9 2.02,-9 0,0 12.95,0 12.95,0 0,0 1.56,-7 1.56,-7 C 28.85,0 8.4,0 8.4,0 8.4,0 0,36 0,36 z" />
      <path id="path4" transform="translate(-425.4178,-417.5077)" d="m 7.51,26 c 0,0 2.24,-9.4 2.24,-9.4 1.18,-5.09 3.67,-9.6 8.38,-9.6 0.42,0 0.83,0.21 1.14,0.26 0,0 1.82,-7.21 1.82,-7.21 -0.42,0 -0.88,-0.05 -1.4,-0.05 -3.47,0 -6.38,2.44 -8.32,5.94 0,0 -0.2,0 -0.2,0 C 11.46,4.23 11.71,2.61 11.9,1 11.9,1 5.47,1 5.47,1 5.1,3.08 4.53,7.15 3.66,10.82 3.66,10.82 0,26 0,26 c 0,0 7.51,0 7.51,0 z" />
      <path id="path5" transform="translate(-404.7878,-417.5077)" d="M 20.06,19.25 C 17.99,20.26 15.63,20 12.88,20 10.71,20 9.03,19.62 8.11,18.88 7.63,18.07 7.43,16.81 7.47,16 17.6,16.27 23.99,13.93 24.31,7.53 24.55,2.7 21.02,0 15.89,0 6.73,0 0.73,8.08 0.34,15.86 0,22.65 3.52,26 10.78,26 c 2.79,0 6.49,-0.32 9.52,-1.23 0,0 -0.24,-5.52 -0.24,-5.52 z M 17.32,7.53 C 17.2,9.91 14.26,10.05 8.47,10 9.1,7.91 11.22,6 14.69,6 c 1.71,0 2.69,0.65 2.63,1.53 z" />
      <path id="path6" transform="translate(-378.2678,-417.5077)" d="M 20.05,19.25 C 17.98,20.26 15.62,20 12.88,20 10.7,20 9.03,19.62 8.11,18.88 7.63,18.07 7.42,16.81 7.46,16 17.6,16.27 23.98,13.93 24.31,7.53 24.55,2.7 21.02,0 15.89,0 6.72,0 0.72,8.08 0.33,15.86 0,22.65 3.52,26 10.77,26 c 2.8,0 6.5,-0.32 9.53,-1.23 0,0 -0.25,-5.52 -0.25,-5.52 z M 17.32,7.53 C 17.2,9.91 14.26,10.05 8.46,10 9.1,7.91 11.21,6 14.68,6 c 1.71,0 2.7,0.65 2.64,1.53 z" />
      <path id="path7" transform="translate(-342.3578,-417.5077)" d="M 22.74,26 C 22.8,22.83 23.56,17.85 24.35,14.58 24.35,14.58 27.56,1 27.56,1 25.52,0.31 22.34,0 19.28,0 6.86,0 0.7,9.2 0.27,17.82 0,23.23 2.93,26 7.49,26 c 2.95,0 6.28,-1.43 8.87,-5.73 0,0 0.11,0 0.11,0 -0.2,2.07 -0.44,4.08 -0.57,5.73 0,0 6.84,0 6.84,0 z M 17.61,11.72 C 16.15,18.08 13.17,20 10.95,20 8.88,20 7.98,18.53 8.1,16.39 8.34,11.56 12.16,6 16.98,6 c 0.78,0 1.39,-0.14 1.96,-0.28 0,0 -1.33,6 -1.33,6 z" />
      <path id="path8" transform="translate(-314.7278,-417.5077)" d="m 0,24.82 c 1.44,1.12 4.46,1.13 7.61,1.18 6.73,0.05 11.81,-2.89 12.11,-8.29 0.17,-3.6 -2.62,-5.73 -5.35,-7.16 C 12.4,9.6 11.41,8.69 11.46,7.63 11.53,6.2 12.87,6 14.84,6 c 2.22,0 4,0.27 5.02,0.47 0,0 2.02,-5.42 2.02,-5.42 C 20.73,0.36 18.43,0 15.48,0 8.95,0 4.17,3.45 3.9,8.69 c -0.16,3.24 2.17,5.42 4.99,6.9 2.28,1.17 3.06,2.07 3,3.34 C 11.82,20.21 10.68,20 8.61,20 6.18,20 3.49,19.68 2.07,19.46 2.07,19.46 0,24.82 0,24.82 z" />
      <path id="path9" transform="translate(-282.2778,-428.5077)" d="m 7.45,37 c 0,0 6.05,-25 6.05,-25 0,0 -7.41,0 -7.41,0 0,0 -6.09,25 -6.09,25 0,0 7.45,0 7.45,0 z M 10.92,9 C 13.46,9 15.72,6.9 15.86,3.3 15.98,0.86 14.4,0 12.07,0 9.64,0 7.42,1.58 7.29,3.94 7.17,6.32 8.75,9 10.92,9 z" />
      <path id="path10" transform="translate(-267.9878,-416.8177)" d="m 7.46,25.31 c 0,0 2.64,-11.26 2.64,-11.26 1.37,-5.73 4.32,-7.74 6.75,-7.74 1.92,0 2.48,0.82 2.39,2.01 -0.05,0.96 -0.2,1.97 -0.4,2.87 0,0 -3.36,14.12 -3.36,14.12 0,0 7.46,0 7.46,0 0,0 3.54,-14.81 3.54,-14.81 C 26.75,9.22 27.05,7.31 27.11,6.15 27.33,1.64 25.08,0 20.94,0 c -3.32,0 -6.55,1.54 -9.1,4.88 0,0 -0.1,0 -0.1,0 0,0 0.68,-4.57 0.68,-4.57 0,0 -6.58,0 -6.58,0 C 5.41,2.45 4.86,5.04 4.08,8.06 4.08,8.06 0,25.31 0,25.31 c 0,0 7.46,0 7.46,0 z" />
      <path id="path11" transform="translate(-228.4278,-427.5077)" d="m 0,36 c 0,0 7.46,0 7.46,0 0,0 3.36,-14 3.36,-14 0,0 12.11,0 12.11,0 0,0 1.56,-6 1.56,-6 0,0 -12.17,0 -12.17,0 0,0 2.02,-9 2.02,-9 0,0 12.95,0 12.95,0 0,0 1.56,-7 1.56,-7 C 28.85,0 8.4,0 8.4,0 8.4,0 0,36 0,36 z" />
      <path id="path12" transform="translate(-202.4778,-417.5077)" d="m 7.51,26 c 0,0 2.24,-9.4 2.24,-9.4 1.18,-5.09 3.67,-9.6 8.38,-9.6 0.42,0 0.83,0.21 1.14,0.26 0,0 1.82,-7.21 1.82,-7.21 -0.42,0 -0.88,-0.05 -1.4,-0.05 -3.47,0 -6.38,2.44 -8.32,5.94 0,0 -0.2,0 -0.2,0 C 11.46,4.23 11.71,2.61 11.9,1 11.9,1 5.47,1 5.47,1 5.11,3.08 4.53,7.15 3.66,10.82 3.66,10.82 0,26 0,26 c 0,0 7.51,0 7.51,0 z" />
      <path id="path13" transform="translate(-181.8478,-417.5077)" d="M 20.06,19.25 C 17.99,20.26 15.63,20 12.88,20 10.71,20 9.03,19.62 8.11,18.88 7.63,18.07 7.43,16.81 7.47,16 17.6,16.27 23.99,13.93 24.31,7.53 24.55,2.7 21.02,0 15.89,0 6.73,0 0.73,8.08 0.34,15.86 0,22.65 3.53,26 10.78,26 c 2.79,0 6.5,-0.32 9.52,-1.23 0,0 -0.24,-5.52 -0.24,-5.52 z M 17.32,7.53 C 17.2,9.91 14.26,10.05 8.47,10 9.1,7.91 11.22,6 14.69,6 c 1.71,0 2.69,0.65 2.63,1.53 z" />
      <path id="path14" transform="translate(-155.3278,-417.5077)" d="M 20.05,19.25 C 17.98,20.26 15.62,20 12.88,20 10.7,20 9.03,19.62 8.11,18.88 7.63,18.07 7.42,16.81 7.46,16 17.6,16.27 23.98,13.93 24.31,7.53 24.55,2.7 21.02,0 15.89,0 6.72,0 0.72,8.08 0.33,15.86 0,22.65 3.52,26 10.77,26 c 2.8,0 6.5,-0.32 9.53,-1.23 0,0 -0.25,-5.52 -0.25,-5.52 z M 17.32,7.53 C 17.2,9.91 14.26,10.05 8.46,10 9.1,7.91 11.21,6 14.68,6 c 1.71,0 2.7,0.65 2.64,1.53 z" />
      <path id="path15" transform="translate(-128.9478,-428.5077)" d="M 23.31,0 C 23.31,0 20.5,11.36 20.5,11.36 19.48,10.94 18.15,11 17.11,11 7.53,11 0.75,19.2 0.3,28.08 0,34.34 3.34,37 7.64,37 c 3.01,0 6.18,-1.33 8.58,-4.77 0,0 0.1,0 0.1,0 0,0 -0.57,4.77 -0.57,4.77 0,0 6.78,0 6.78,0 0.31,-3 0.96,-6.57 1.69,-9.83 0,0 6.49,-27.17 6.49,-27.17 0,0 -7.4,0 -7.4,0 z M 17.47,24.42 C 16.3,29.35 13.54,31 11.36,31 9.19,31 7.98,29.49 8.13,26.8 8.38,21.82 11.8,17 16.25,17 c 1.25,0 2.32,0.19 2.91,0.47 0,0 -1.69,6.95 -1.69,6.95 z" />
      <path id="path16" transform="translate(-99.2378,-417.5077)" d="M 10.61,26 C 19.31,26 26.02,19.41 26.49,10.44 26.78,4.5 23.08,0 16.25,0 7.23,0 0.76,7.3 0.31,16.12 0,22.54 4.14,26 10.61,26 z m 1.17,-6 C 9.24,20 7.84,18.38 7.99,15.96 8.19,11.93 10.68,6 14.97,6 c 2.96,0 3.87,2.27 3.75,4.5 -0.22,4.4 -2.9,9.5 -6.94,9.5 z" />
      <path id="path17" transform="translate(-70.6778,-417.5077)" d="M 7.2,26 C 7.2,26 9.9,14.58 9.9,14.58 11.03,9.49 13.85,6 16.38,6 c 1.82,0 2.32,1.33 2.23,3.07 -0.05,0.9 -0.25,1.91 -0.46,2.91 0,0 -3.34,14.02 -3.34,14.02 0,0 7.2,0 7.2,0 0,0 2.7,-11.47 2.7,-11.47 C 25.95,9.28 28.61,6 31.09,6 c 1.71,0 2.42,1.22 2.34,2.96 -0.05,1.01 -0.26,2.12 -0.52,3.13 0,0 -3.24,13.91 -3.24,13.91 0,0 7.25,0 7.25,0 0,0 3.49,-14.81 3.49,-14.81 0.27,-1.33 0.58,-3.4 0.63,-4.46 C 41.26,2.33 39.11,0 35.23,0 31.91,0 28.68,1.5 26.23,4.66 26.14,2.38 24.51,0 20.47,0 17.2,0 14.08,1.48 11.58,4.83 c 0,0 -0.1,0 -0.1,0 0,0 0.67,-3.83 0.67,-3.83 0,0 -6.42,0 -6.42,0 C 5.31,3.14 4.8,5.73 4.02,8.75 4.02,8.75 0,26 0,26 c 0,0 7.2,0 7.2,0 z" />
    </g>
  </g>
</svg>
