<?xml version="1.0" encoding="UTF-8"?>
<svg width="19px" height="23px" viewBox="0 0 19 23" version="1.1" xmlns="http://www.w3.org/2000/svg" xmlns:xlink="http://www.w3.org/1999/xlink">
    <!-- Generator: Sketch 43.1 (39012) - http://www.bohemiancoding.com/sketch -->
    <title>androd</title>
    <desc>Created with Sketch.</desc>
    <defs></defs>
    <g id="Page-1" stroke="none" stroke-width="1" fill="none" fill-rule="evenodd">
        <g id="Artboard" transform="translate(-71.000000, -8.000000)" fill-rule="nonzero">
            <g id="android" transform="translate(67.000000, 6.000000)">
                <g id="androd" transform="translate(4.149701, 2.592000)">
                    <path d="M12.0887784,1.906092 L13.1751916,0.325404 C13.2397006,0.231444 13.2236407,0.108108 13.1392994,0.049788 C13.0550659,-0.008208 12.9342395,0.020466 12.8702156,0.114534 L11.7411198,1.75662 C10.9970299,1.462914 10.1707545,1.29924 9.29985629,1.29924 C8.42895808,1.29924 7.60246707,1.462752 6.85843114,1.75662 L5.72949701,0.11448 C5.66477246,0.02052 5.54416168,-0.008262 5.45987425,0.049734 C5.37558683,0.107892 5.35958084,0.231282 5.42408982,0.32535 L6.51088024,1.906038 C4.78293413,2.711502 3.57116766,4.242078 3.41676647,6.028398 L15.1822994,6.028398 C15.0284371,4.242078 13.8166168,2.711556 12.0887784,1.906092" id="Shape" fill="#9FBF3B"></path>
                    <path d="M6.84194012,4.397652 C6.48231737,4.397652 6.19092216,4.105674 6.19092216,3.745386 C6.19092216,3.385152 6.48215569,3.093066 6.84194012,3.093066 C7.20129341,3.093066 7.49258084,3.385044 7.49258084,3.745386 C7.49263473,4.10562 7.20129341,4.397652 6.84194012,4.397652" id="Shape" fill="#FFFFFF"></path>
                    <path d="M11.7571796,4.397652 C11.3978263,4.397652 11.106485,4.105674 11.106485,3.745386 C11.106485,3.385044 11.3978263,3.093066 11.7571796,3.093066 C12.1169102,3.093066 12.4081437,3.385152 12.4081437,3.745386 C12.4081437,4.10562 12.1168024,4.397652 11.7571796,4.397652" id="Shape" fill="#FFFFFF"></path>
                    <path d="M2.66135928,13.478292 C2.66135928,14.204592 2.07371856,14.793408 1.34881437,14.793408 L1.34881437,14.793408 C0.623964072,14.793408 0.0363233533,14.204592 0.0363233533,13.478292 L0.0363233533,8.15886 C0.0363233533,7.43256 0.623964072,6.843744 1.34881437,6.843744 L1.34881437,6.843744 C2.07371856,6.843744 2.66135928,7.43256 2.66135928,8.15886 L2.66135928,13.478292 Z" id="Shape" fill="#9FBF3B"></path>
                    <path d="M3.4165509,6.884406 L3.4165509,16.491816 C3.4165509,17.06238 3.87819162,17.524998 4.44777844,17.524998 L5.66752096,17.524998 L5.66752096,20.481174 C5.66752096,21.207528 6.25510778,21.79629 6.98001198,21.79629 C7.70491617,21.79629 8.29255689,21.207528 8.29255689,20.481174 L8.29255689,17.524998 L10.3065629,17.524998 L10.3065629,20.481174 C10.3065629,21.207528 10.8940958,21.79629 11.6190539,21.79629 C12.344012,21.79629 12.9315449,21.207528 12.9315449,20.481174 L12.9315449,17.524998 L14.1512874,17.524998 C14.7208743,17.524998 15.1826228,17.06265 15.1826228,16.491816 L15.1826228,6.884406 L3.4165509,6.884406 Z" id="Shape" fill="#9FBF3B"></path>
                    <path d="M15.9377605,13.478292 C15.9377605,14.204592 16.5253473,14.793408 17.2502515,14.793408 L17.2502515,14.793408 C17.9751018,14.793408 18.5627425,14.204592 18.5627425,13.478292 L18.5627425,8.15886 C18.5627425,7.43256 17.9751018,6.843744 17.2502515,6.843744 L17.2502515,6.843744 C16.5253473,6.843744 15.9377605,7.43256 15.9377605,8.15886 L15.9377605,13.478292 Z" id="Shape" fill="#9FBF3B"></path>
                </g>
            </g>
        </g>
    </g>
</svg>