<?xml version="1.0" encoding="utf-8"?>
<!-- Generator: Adobe Illustrator 21.0.2, SVG Export Plug-In . SVG Version: 6.00 Build 0)  -->
<svg version="1.1" id="Layer_1" xmlns="http://www.w3.org/2000/svg" xmlns:xlink="http://www.w3.org/1999/xlink" x="0px" y="0px"
	 viewBox="0 0 169.7 205.2" style="enable-background:new 0 0 169.7 205.2;" xml:space="preserve">
<style type="text/css">
	.st0{fill:#A65A95;}
	.st1{fill:#001946;}
</style>
<g>
	<g>
		<path class="st0" d="M45.2,167.8c-3,0-5.4-1.1-7.8-4.3l3.6-3.1c1.6,2.1,2.7,2.7,4.2,2.7c2.6,0,4.4-2,4.4-5v-17.2h5V158
			C54.6,163.9,50.7,167.8,45.2,167.8z"/>
		<path class="st0" d="M70.7,167.8c-5.8,0-10.8-4.2-10.8-11.2v-15.8h5v15.6c0,4.1,2.4,6.7,5.8,6.7c3.4,0,5.8-2.6,5.8-6.7v-15.6h5
			v15.8C81.5,163.5,76.5,167.8,70.7,167.8z"/>
		<path class="st0" d="M99,167.8c-7.6,0-13.9-6.1-13.9-13.6c0-7.6,6.3-13.6,13.9-13.6c3.4,0,6.3,1.2,9.1,3.4l-2.9,3.6
			c-2.6-1.8-4.1-2.4-6.2-2.4c-4.8,0-8.8,3.9-8.8,9c0,5,3.9,9,8.8,9c2,0,3.6-0.6,6.1-2.4l3,3.7C104.6,167,102,167.8,99,167.8z"/>
		<path class="st0" d="M111.3,167.4v-26.6h16.6v4.5h-11.6v6.4h11.2v4.5h-11.2v6.7h11.6v4.5H111.3z"/>
	</g>
	<g>
		<circle class="st1" cx="84.9" cy="74.9" r="37.4"/>
		<circle class="st0" cx="84.9" cy="74.9" r="28"/>
		<circle class="st1" cx="84.9" cy="67.9" r="2.1"/>
		<circle class="st1" cx="91.4" cy="72.6" r="2.1"/>
		<circle class="st1" cx="88.9" cy="80.3" r="2.1"/>
		<circle class="st1" cx="80.8" cy="80.3" r="2.1"/>
		<circle class="st1" cx="78.3" cy="72.6" r="2.1"/>
	</g>
	<g>
		<path class="st1" d="M48.2,131.7v-4.6h-4.3v4.6h-2V121h2v4.3h4.3V121h2v10.8H48.2z"/>
		<path class="st1" d="M56.7,131.7v-0.5c-0.5,0.4-1.3,0.7-2.1,0.7c-1.9,0-3.2-1.3-3.2-3.4v-5h2v4.8c0,1.2,0.7,1.8,1.7,1.8
			c1,0,1.7-0.7,1.7-1.8v-4.8h2v8.3H56.7z"/>
		<path class="st1" d="M63.8,131.9c-2.4,0-4.3-1.9-4.3-4.3c0-2.4,1.9-4.3,4.3-4.3c1.1,0,2.1,0.4,3.3,1.5l-1.3,1.2
			c-0.7-0.7-1.3-1-2-1c-1.3,0-2.3,1.1-2.3,2.5c0,1.3,1,2.5,2.3,2.5c0.6,0,1.3-0.2,2-0.9l1.3,1.2C66,131.5,65,131.9,63.8,131.9z"/>
		<path class="st1" d="M73.8,131.7l-3.9-3.9v3.9h-2v-11.3h2v6.8l3.6-3.7h2.5l-3.9,4l4.3,4.3H73.8z"/>
		<path class="st1" d="M77.1,131.7v-11.3h2v11.3H77.1z"/>
		<path class="st1" d="M88.6,128.4h-6.2c0.1,1,1.1,1.7,2.1,1.7c0.7,0,1.5-0.3,2.3-1.1l1.3,1.2c-1.1,1.2-2.3,1.7-3.6,1.7
			c-2.4,0-4.3-1.9-4.3-4.3c0-2.4,1.9-4.3,4.3-4.3c2.4,0,4.1,1.9,4.1,4.2C88.7,127.9,88.6,128.4,88.6,128.4z M84.5,125.1
			c-1,0-1.9,0.6-2.1,1.5h4.1C86.3,125.8,85.5,125.1,84.5,125.1z"/>
		<path class="st1" d="M93.9,131.9c-0.9,0-1.7-0.3-2.3-0.8v0.6h-2v-11.3h2v3.7c0.6-0.5,1.4-0.8,2.3-0.8c2.3,0,4.2,1.9,4.2,4.3
			C98.1,129.9,96.2,131.9,93.9,131.9z M93.9,125.1c-1.3,0-2.2,1.1-2.2,2.5c0,1.4,1,2.5,2.2,2.5c1.3,0,2.2-1.1,2.2-2.5
			C96.2,126.2,95.2,125.1,93.9,125.1z"/>
		<path class="st1" d="M107.4,128.4h-6.2c0.1,1,1.1,1.7,2.1,1.7c0.7,0,1.5-0.3,2.3-1.1l1.3,1.2c-1.1,1.2-2.3,1.7-3.6,1.7
			c-2.4,0-4.3-1.9-4.3-4.3c0-2.4,1.9-4.3,4.3-4.3c2.4,0,4.1,1.9,4.1,4.2C107.5,127.9,107.4,128.4,107.4,128.4z M103.3,125.1
			c-1,0-1.9,0.6-2.1,1.5h4.1C105.1,125.8,104.3,125.1,103.3,125.1z"/>
		<path class="st1" d="M110.4,127.8v3.9h-2v-8.3h2v0.8c0.7-0.6,1.4-0.9,2.6-1v1.8C111,125.4,110.4,126.6,110.4,127.8z"/>
		<path class="st1" d="M116,127.8v3.9h-2v-8.3h2v0.8c0.7-0.6,1.4-0.9,2.6-1v1.8C116.6,125.4,116,126.6,116,127.8z"/>
		<path class="st1" d="M122.2,134.6h-2.1l2.2-4.2l-3.4-6.9h2.1l2.4,4.8l2.3-4.8h2.2L122.2,134.6z"/>
	</g>
</g>
</svg>
