<svg width="155" height="155">
  <g>
    <path
       style="color:#000000;fill:#889977;fill-opacity:1;fill-rule:nonzero;stroke:#333333;stroke-width:3;stroke-linecap:butt;stroke-linejoin:miter;stroke-miterlimit:4;stroke-opacity:1;"
       d="m 336,565 c -1,0 -3,0 -5,0 l -0,0 -4,20 c -6,1 -12,4 -17,7 L 294,581 c -4,4 -8,8 -12,12 l 12,17 c -3,5 -6,11 -8,18 0,0 0,0 0,0 l -20,3 c -0,3 -1,6 0,9 0,3 0,5 0,7 l 20,3 c 1,7 4,13 8,20 l -12,16 c 3,4 7,8 12,12 l 17,-12 c 6,4 13,7 20,8 l 3,20 c 2,0 4,0 7,0 3,0 6,0 10,0 l 4,-20 c 7,-2 13,-5 19,-9 l 17,12 c 4,-4 8,-8 12,-12 l -12,-17 c 3,-6 6,-12 7,-18 l 20,-3 c 0,-2 0,-4 0,-6 0,-4 0,-7 -1,-11 l -21,-4 c -2,-6 -4,-12 -8,-17 l 12,-17 c -4,-5 -8,-8 -13,-12 l -17,12 c -5,-3 -10,-5 -16,-7 l -3,-20 c -3,0 -6,0 -9,0 -1,0 -2,0 -2,0 0,0 -1,0 -1,0 0,0 0,0 0,0 z m 3,52 c 0,0 1,0 1,0 13,0 23,10 23,23 0,13 -10,23 -23,23 -13,0 -23,-10 -23,-23 0,-12 9,-22 22,-23 z"/>
  </g>
</svg>