<?xml version="1.0" encoding="utf-8"?>
<!-- Generator: Adobe Illustrator 18.0.0, SVG Export Plug-In . SVG Version: 6.00 Build 0)  -->
<!DOCTYPE svg PUBLIC "-//W3C//DTD SVG 1.1//EN" "http://www.w3.org/Graphics/SVG/1.1/DTD/svg11.dtd">
<svg version="1.1" id="Layer_1" xmlns="http://www.w3.org/2000/svg" xmlns:xlink="http://www.w3.org/1999/xlink" x="0px" y="0px"
	 viewBox="0 0 136.9 114.8" enable-background="new 0 0 136.9 114.8" xml:space="preserve">
<path fill="none" stroke="#F29100" stroke-width="1.3469" stroke-miterlimit="10" d="M130,114.9H6.9c-3.8,0-6.9-3.1-6.9-6.9V7
	c0-3.8,3.1-6.9,6.9-6.9H130c3.8,0,6.9,3.1,6.9,6.9V108C136.9,111.8,133.9,114.9,130,114.9z"/>
<g id="Layer_1_19_">
	<rect x="16.3" y="11" fill="none" stroke="#F29100" stroke-width="1.3469" stroke-miterlimit="10" width="102.9" height="67.5"/>
</g>
<g>
	<line fill="none" stroke="#F29100" stroke-width="0.4307" stroke-miterlimit="10" x1="39.6" y1="25" x2="39.6" y2="62.3"/>
	<line fill="none" stroke="#F29100" stroke-width="0.4307" stroke-miterlimit="10" x1="41.2" y1="25" x2="41.2" y2="62.3"/>
	<line fill="none" stroke="#F29100" stroke-width="0.4307" stroke-miterlimit="10" x1="42.8" y1="25" x2="42.8" y2="62.3"/>
	<line fill="none" stroke="#F29100" stroke-width="0.4307" stroke-miterlimit="10" x1="44.5" y1="25" x2="44.5" y2="62.3"/>
	<line fill="none" stroke="#F29100" stroke-width="0.4307" stroke-miterlimit="10" x1="46.1" y1="25" x2="46.1" y2="62.3"/>
	<line fill="none" stroke="#F29100" stroke-width="0.4307" stroke-miterlimit="10" x1="47.7" y1="25" x2="47.7" y2="62.3"/>
</g>
<path fill="none" stroke="#F29100" stroke-width="1.0853" stroke-miterlimit="10" d="M49.9,23.9v38.6c0,0.9-0.7,1.6-1.6,1.6H39
	c-0.9,0-1.6-0.7-1.6-1.6V23.9"/>
<g>
	<line fill="none" stroke="#F29100" stroke-width="0.4307" stroke-miterlimit="10" x1="54.8" y1="27.5" x2="67.4" y2="62.6"/>
	<line fill="none" stroke="#F29100" stroke-width="0.4307" stroke-miterlimit="10" x1="56.3" y1="27" x2="69" y2="62"/>
	<line fill="none" stroke="#F29100" stroke-width="0.4307" stroke-miterlimit="10" x1="57.8" y1="26.4" x2="70.5" y2="61.5"/>
	<line fill="none" stroke="#F29100" stroke-width="0.4307" stroke-miterlimit="10" x1="59.4" y1="25.9" x2="72.1" y2="60.9"/>
	<line fill="none" stroke="#F29100" stroke-width="0.4307" stroke-miterlimit="10" x1="60.9" y1="25.3" x2="73.6" y2="60.4"/>
	<line fill="none" stroke="#F29100" stroke-width="0.4307" stroke-miterlimit="10" x1="62.4" y1="24.8" x2="75.1" y2="59.8"/>
</g>
<path fill="none" stroke="#F29100" stroke-width="1.0853" stroke-miterlimit="10" d="M64.1,23l13.1,36.3c0.3,0.8-0.1,1.7-0.9,2
	l-8.8,3.2c-0.8,0.3-1.7-0.1-2-0.9L52.4,27.2"/>
<g>
	<line fill="none" stroke="#F29100" stroke-width="0.4307" stroke-miterlimit="10" x1="72.5" y1="30.6" x2="93.5" y2="61.4"/>
	<line fill="none" stroke="#F29100" stroke-width="0.4307" stroke-miterlimit="10" x1="73.8" y1="29.7" x2="94.9" y2="60.5"/>
	<line fill="none" stroke="#F29100" stroke-width="0.4307" stroke-miterlimit="10" x1="75.2" y1="28.8" x2="96.2" y2="59.6"/>
	<line fill="none" stroke="#F29100" stroke-width="0.4307" stroke-miterlimit="10" x1="76.5" y1="27.9" x2="97.6" y2="58.6"/>
	<line fill="none" stroke="#F29100" stroke-width="0.4307" stroke-miterlimit="10" x1="77.9" y1="27" x2="98.9" y2="57.7"/>
	<line fill="none" stroke="#F29100" stroke-width="0.4307" stroke-miterlimit="10" x1="79.2" y1="26" x2="100.3" y2="56.8"/>
</g>
<path fill="none" stroke="#F29100" stroke-width="1.0853" stroke-miterlimit="10" d="M80.4,23.9l21.8,31.9c0.5,0.7,0.3,1.7-0.4,2.2
	l-7.7,5.3c-0.7,0.5-1.7,0.3-2.2-0.4L70.1,31"/>
</svg>
