<?xml version="1.0" encoding="utf-8"?>
<!-- Generator: Adobe Illustrator 18.0.0, SVG Export Plug-In . SVG Version: 6.00 Build 0)  -->
<!DOCTYPE svg PUBLIC "-//W3C//DTD SVG 1.1//EN" "http://www.w3.org/Graphics/SVG/1.1/DTD/svg11.dtd">
<svg version="1.1" id="Layer_1" xmlns="http://www.w3.org/2000/svg" xmlns:xlink="http://www.w3.org/1999/xlink" x="0px" y="0px"
	 viewBox="0 0 136.9 114.8" enable-background="new 0 0 136.9 114.8" xml:space="preserve">
<path fill="none" stroke="#F29100" stroke-width="1.3469" stroke-miterlimit="10" d="M130,114.8H6.9c-3.8,0-6.9-3.1-6.9-6.9V6.9
	C0,3.1,3.1,0,6.9,0H130c3.8,0,6.9,3.1,6.9,6.9v101.1C136.9,111.7,133.9,114.8,130,114.8z"/>
<g id="Layer_1_22_">
	<rect x="16.3" y="10.9" fill="none" stroke="#F29100" stroke-width="1.3469" stroke-miterlimit="10" width="102.9" height="67.5"/>
</g>
<g id="Layer_3_3_">
	<g opacity="0.8">
		<path fill="#F29300" d="M40.6,28.3l-14.4-6.6v-2.3l17.3,7.8v2.1l-17.3,7.8v-2.3L40.6,28.3z"/>
		<path fill="#F29300" d="M62,39.5v1.7H45v-1.7H62z"/>
	</g>
	<g>
		<path fill="#F29300" d="M40.6,28.3l-14.4-6.6v-2.3l17.3,7.8v2.1l-17.3,7.8v-2.3L40.6,28.3z"/>
		<path fill="#F29300" d="M62,39.5v1.7H45v-1.7H62z"/>
	</g>
</g>
</svg>
