<?xml version="1.0" encoding="utf-8"?>
<!-- Generator: Adobe Illustrator 18.0.0, SVG Export Plug-In . SVG Version: 6.00 Build 0)  -->
<!DOCTYPE svg PUBLIC "-//W3C//DTD SVG 1.1//EN" "http://www.w3.org/Graphics/SVG/1.1/DTD/svg11.dtd">
<svg version="1.1" id="Layer_1" xmlns="http://www.w3.org/2000/svg" xmlns:xlink="http://www.w3.org/1999/xlink" x="0px" y="0px"
	 viewBox="0 0 136.9 114.8" enable-background="new 0 0 136.9 114.8" xml:space="preserve">
<g id="Layer_1_18_">
	<rect x="16.3" y="10.9" fill="none" stroke="#F29100" stroke-width="1.3469" stroke-miterlimit="10" width="103.6" height="67.5"/>
</g>
<rect x="16.3" y="10.9" fill="none" stroke="#F29300" stroke-width="1.3469" stroke-miterlimit="10" width="103.6" height="2.4"/>
<circle fill="none" stroke="#F29100" stroke-width="1.3469" stroke-miterlimit="10" cx="80.3" cy="45" r="20.8"/>
<g>
	<g>
		<path fill="none" stroke="#F29100" stroke-width="1.3469" stroke-miterlimit="10" d="M97.8,40.1c0.9,3.2,0,8-2.1,8.3
			c-2,0.2-10.5-2.2-14.8-3.6c2.9-3.4,8.9-10,10.8-10.8C93.5,33.2,96.9,36.9,97.8,40.1z"/>
	</g>
	<g>
		<path fill="none" stroke="#F29100" stroke-width="1.3469" stroke-miterlimit="10" d="M93.3,57.7c-2.3,2.4-7,4-8.2,2.4
			c-1.2-1.6-3.4-10.2-4.3-14.6c4.4,0.8,13.1,2.8,14.7,4C97.2,50.5,95.6,55.3,93.3,57.7z"/>
	</g>
	<g>
		<path fill="none" stroke="#F29100" stroke-width="1.3469" stroke-miterlimit="10" d="M75.7,62.6c-3.2-0.8-7-4.1-6.1-6
			c0.8-1.9,7.2-8,10.5-11.1c1.5,4.3,4.1,12.7,3.9,14.8C83.9,62.4,79,63.4,75.7,62.6z"/>
	</g>
	<g>
		<path fill="none" stroke="#F29100" stroke-width="1.3469" stroke-miterlimit="10" d="M62.9,49.9c-0.9-3.2,0-8,2.1-8.3
			c2-0.2,10.5,2.2,14.8,3.6c-2.9,3.4-8.9,10-10.8,10.8C67.2,56.8,63.8,53.1,62.9,49.9z"/>
	</g>
	<g>
		<path fill="none" stroke="#F29100" stroke-width="1.3469" stroke-miterlimit="10" d="M67.4,32.3c2.3-2.4,7-4,8.2-2.4
			c1.2,1.6,3.4,10.2,4.3,14.6c-4.4-0.8-13.1-2.8-14.7-4C63.5,39.4,65.1,34.7,67.4,32.3z"/>
	</g>
	<g>
		<path fill="none" stroke="#F29100" stroke-width="1.3469" stroke-miterlimit="10" d="M84.8,27.4c3.2,0.8,7,4.1,6.1,6
			c-0.8,1.9-7.2,8-10.5,11.1c-1.5-4.3-4.1-12.7-3.9-14.8C76.7,27.6,81.6,26.6,84.8,27.4z"/>
	</g>
</g>
<path fill="none" stroke="#F29100" stroke-width="1.3469" stroke-miterlimit="10" d="M130,114.8H6.9c-3.8,0-6.9-3.1-6.9-6.9V6.9
	C0,3.1,3.1,0,6.9,0H130c3.8,0,6.9,3.1,6.9,6.9v101.1C136.9,111.7,133.9,114.8,130,114.8z"/>
<path opacity="0.8" fill="none" stroke="#F29100" stroke-width="1.3469" stroke-miterlimit="10" d="M62.6,61.4
	c-9.1-9.1-9.1-23.7,0-32.8"/>
<path opacity="0.5" fill="none" stroke="#F29100" stroke-width="1.3469" stroke-miterlimit="10" d="M55.9,57.3
	c-4.7-7.4-4.7-16.9-0.1-24.4"/>
<line opacity="0.7" fill="none" stroke="#F29100" stroke-width="1.3469" stroke-miterlimit="10" x1="57.7" y1="41.5" x2="37.8" y2="41.5"/>
<line opacity="0.7" fill="none" stroke="#F29100" stroke-width="1.3469" stroke-miterlimit="10" x1="57.7" y1="48.4" x2="34.2" y2="48.4"/>
</svg>
