<?xml version="1.0" encoding="utf-8"?>
<!-- Generator: Adobe Illustrator 18.0.0, SVG Export Plug-In . SVG Version: 6.00 Build 0)  -->
<!DOCTYPE svg PUBLIC "-//W3C//DTD SVG 1.1//EN" "http://www.w3.org/Graphics/SVG/1.1/DTD/svg11.dtd">
<svg version="1.1" id="Layer_1" xmlns="http://www.w3.org/2000/svg" xmlns:xlink="http://www.w3.org/1999/xlink" x="0px" y="0px"
	 viewBox="0 0 136.9 114.8" enable-background="new 0 0 136.9 114.8" xml:space="preserve">
<path fill="none" stroke="#F29100" stroke-width="1.3469" stroke-miterlimit="10" d="M130,114.8H6.9c-3.8,0-6.9-3.1-6.9-6.9V6.9
	C0,3.1,3.1,0,6.9,0H130c3.8,0,6.9,3.1,6.9,6.9v101.1C136.9,111.7,133.9,114.8,130,114.8z"/>
<rect x="16.5" y="10.9" fill="none" stroke="#F29300" stroke-width="1.3412" stroke-miterlimit="10" width="102.7" height="2.4"/>
<rect x="16.5" y="10.9" fill="none" stroke="#F29100" stroke-width="1.3469" stroke-miterlimit="10" width="102.9" height="67.5"/>
<line fill="none" stroke="#F29300" stroke-width="1.5" stroke-linecap="round" stroke-miterlimit="10" x1="17.1" y1="43.8" x2="17.1" y2="44.5"/>
<line fill="none" stroke="#F29300" stroke-width="1.5" stroke-linecap="round" stroke-miterlimit="10" x1="18.8" y1="43.6" x2="18.8" y2="44.7"/>
<line fill="none" stroke="#F29300" stroke-width="1.5" stroke-linecap="round" stroke-miterlimit="10" x1="20.4" y1="43.8" x2="20.4" y2="44.5"/>
<line fill="none" stroke="#F29300" stroke-width="1.5" stroke-linecap="round" stroke-miterlimit="10" x1="22.1" y1="43.6" x2="22.1" y2="44.7"/>
<line fill="none" stroke="#F29300" stroke-width="1.5" stroke-linecap="round" stroke-miterlimit="10" x1="23.8" y1="43.1" x2="23.8" y2="45.2"/>
<line fill="none" stroke="#F29300" stroke-width="1.5" stroke-linecap="round" stroke-miterlimit="10" x1="25.4" y1="42.3" x2="25.4" y2="46"/>
<line fill="none" stroke="#F29300" stroke-width="1.5" stroke-linecap="round" stroke-miterlimit="10" x1="27.1" y1="43.9" x2="27.1" y2="44.4"/>
<line fill="none" stroke="#F29300" stroke-width="1.5" stroke-linecap="round" stroke-miterlimit="10" x1="28.8" y1="43.3" x2="28.8" y2="45"/>
<line fill="none" stroke="#F29300" stroke-width="1.5" stroke-linecap="round" stroke-miterlimit="10" x1="30.4" y1="29.3" x2="30.4" y2="59"/>
<line fill="none" stroke="#F29300" stroke-width="1.5" stroke-linecap="round" stroke-miterlimit="10" x1="32.1" y1="40.9" x2="32.1" y2="47.4"/>
<line fill="none" stroke="#F29300" stroke-width="1.5" stroke-linecap="round" stroke-miterlimit="10" x1="33.8" y1="42.7" x2="33.8" y2="45.6"/>
<line fill="none" stroke="#F29300" stroke-width="1.5" stroke-linecap="round" stroke-miterlimit="10" x1="35.4" y1="36.6" x2="35.4" y2="51.7"/>
<line fill="none" stroke="#F29300" stroke-width="1.5" stroke-linecap="round" stroke-miterlimit="10" x1="37.1" y1="33.3" x2="37.1" y2="55.1"/>
<line fill="none" stroke="#F29300" stroke-width="1.5" stroke-linecap="round" stroke-miterlimit="10" x1="38.8" y1="42.6" x2="38.8" y2="45.7"/>
<line fill="none" stroke="#F29300" stroke-width="1.5" stroke-linecap="round" stroke-miterlimit="10" x1="40.4" y1="37.4" x2="40.4" y2="50.9"/>
<line fill="none" stroke="#F29300" stroke-width="1.5" stroke-linecap="round" stroke-miterlimit="10" x1="42.1" y1="27.4" x2="42.1" y2="60.9"/>
<line fill="none" stroke="#F29300" stroke-width="1.5" stroke-linecap="round" stroke-miterlimit="10" x1="43.8" y1="39.3" x2="43.8" y2="49"/>
<line fill="none" stroke="#F29300" stroke-width="1.5" stroke-linecap="round" stroke-miterlimit="10" x1="45.4" y1="41.1" x2="45.4" y2="47.2"/>
<line fill="none" stroke="#F29300" stroke-width="1.5" stroke-linecap="round" stroke-miterlimit="10" x1="47.1" y1="42.6" x2="47.1" y2="45.7"/>
<line fill="none" stroke="#F29300" stroke-width="1.5" stroke-linecap="round" stroke-miterlimit="10" x1="48.8" y1="36.2" x2="48.8" y2="52.1"/>
<line fill="none" stroke="#F29300" stroke-width="1.5" stroke-linecap="round" stroke-miterlimit="10" x1="50.4" y1="42.5" x2="50.4" y2="45.9"/>
<line fill="none" stroke="#F29300" stroke-width="1.5" stroke-linecap="round" stroke-miterlimit="10" x1="52.1" y1="39.3" x2="52.1" y2="49"/>
<line fill="none" stroke="#F29300" stroke-width="1.5" stroke-linecap="round" stroke-miterlimit="10" x1="53.8" y1="34.8" x2="53.8" y2="53.5"/>
<line fill="none" stroke="#F29300" stroke-width="1.5" stroke-linecap="round" stroke-miterlimit="10" x1="55.4" y1="42.2" x2="55.4" y2="46.1"/>
<line fill="none" stroke="#F29300" stroke-width="1.5" stroke-linecap="round" stroke-miterlimit="10" x1="57.1" y1="41" x2="57.1" y2="47.3"/>
<line fill="none" stroke="#F29300" stroke-width="1.5" stroke-linecap="round" stroke-miterlimit="10" x1="58.8" y1="35.4" x2="58.8" y2="53"/>
<line fill="none" stroke="#F29300" stroke-width="1.5" stroke-linecap="round" stroke-miterlimit="10" x1="60.4" y1="32.6" x2="60.4" y2="55.8"/>
<line fill="none" stroke="#F29300" stroke-width="1.5" stroke-linecap="round" stroke-miterlimit="10" x1="62.1" y1="37.4" x2="62.1" y2="50.9"/>
<line fill="none" stroke="#F29300" stroke-width="1.5" stroke-linecap="round" stroke-miterlimit="10" x1="63.8" y1="38.1" x2="63.8" y2="50.2"/>
<line fill="none" stroke="#F29300" stroke-width="1.5" stroke-linecap="round" stroke-miterlimit="10" x1="65.4" y1="42.2" x2="65.4" y2="46.1"/>
<line fill="none" stroke="#F29300" stroke-width="1.5" stroke-linecap="round" stroke-miterlimit="10" x1="67.1" y1="38.9" x2="67.1" y2="49.4"/>
<line fill="none" stroke="#F29300" stroke-width="1.5" stroke-linecap="round" stroke-miterlimit="10" x1="68.8" y1="43.6" x2="68.8" y2="44.7"/>
<line fill="none" stroke="#F29300" stroke-width="1.5" stroke-linecap="round" stroke-miterlimit="10" x1="70.4" y1="41.4" x2="70.4" y2="47"/>
<line fill="none" stroke="#F29300" stroke-width="1.5" stroke-linecap="round" stroke-miterlimit="10" x1="72.1" y1="39" x2="72.1" y2="49.3"/>
<line fill="none" stroke="#F29300" stroke-width="1.5" stroke-linecap="round" stroke-miterlimit="10" x1="73.8" y1="40.9" x2="73.8" y2="47.5"/>
<line fill="none" stroke="#F29300" stroke-width="1.5" stroke-linecap="round" stroke-miterlimit="10" x1="75.4" y1="40.6" x2="75.4" y2="47.8"/>
<line fill="none" stroke="#F29300" stroke-width="1.5" stroke-linecap="round" stroke-miterlimit="10" x1="77.1" y1="38.4" x2="77.1" y2="49.9"/>
<line fill="none" stroke="#F29300" stroke-width="1.5" stroke-linecap="round" stroke-miterlimit="10" x1="78.8" y1="42" x2="78.8" y2="46.3"/>
<line fill="none" stroke="#F29300" stroke-width="1.5" stroke-linecap="round" stroke-miterlimit="10" x1="80.4" y1="42.2" x2="80.4" y2="46.1"/>
<line fill="none" stroke="#F29300" stroke-width="1.5" stroke-linecap="round" stroke-miterlimit="10" x1="82.1" y1="43.6" x2="82.1" y2="44.7"/>
<line fill="none" stroke="#F29300" stroke-width="1.5" stroke-linecap="round" stroke-miterlimit="10" x1="83.8" y1="42.6" x2="83.8" y2="45.7"/>
<line fill="none" stroke="#F29300" stroke-width="1.5" stroke-linecap="round" stroke-miterlimit="10" x1="85.4" y1="43.3" x2="85.4" y2="45"/>
<line fill="none" stroke="#F29300" stroke-width="1.5" stroke-linecap="round" stroke-miterlimit="10" x1="87.1" y1="39.9" x2="87.1" y2="48.4"/>
<line fill="none" stroke="#F29300" stroke-width="1.5" stroke-linecap="round" stroke-miterlimit="10" x1="88.8" y1="42.9" x2="88.8" y2="45.4"/>
<line fill="none" stroke="#F29300" stroke-width="1.5" stroke-linecap="round" stroke-miterlimit="10" x1="90.4" y1="43.6" x2="90.4" y2="44.7"/>
<line fill="none" stroke="#F29300" stroke-width="1.5" stroke-linecap="round" stroke-miterlimit="10" x1="92.1" y1="43.6" x2="92.1" y2="44.7"/>
<line fill="none" stroke="#F29300" stroke-width="1.5" stroke-linecap="round" stroke-miterlimit="10" x1="93.8" y1="42.7" x2="93.8" y2="45.6"/>
<line fill="none" stroke="#F29300" stroke-width="1.5" stroke-linecap="round" stroke-miterlimit="10" x1="95.4" y1="41.1" x2="95.4" y2="47.2"/>
<line fill="none" stroke="#F29300" stroke-width="1.5" stroke-linecap="round" stroke-miterlimit="10" x1="97.1" y1="42.7" x2="97.1" y2="45.6"/>
<line fill="none" stroke="#F29300" stroke-width="1.5" stroke-linecap="round" stroke-miterlimit="10" x1="98.8" y1="43.6" x2="98.8" y2="44.7"/>
<line fill="none" stroke="#F29300" stroke-width="1.5" stroke-linecap="round" stroke-miterlimit="10" x1="100.4" y1="43.1" x2="100.4" y2="45.2"/>
<line fill="none" stroke="#F29300" stroke-width="1.5" stroke-linecap="round" stroke-miterlimit="10" x1="102.1" y1="43.6" x2="102.1" y2="44.7"/>
<line fill="none" stroke="#F29300" stroke-width="1.5" stroke-linecap="round" stroke-miterlimit="10" x1="103.8" y1="42" x2="103.8" y2="46.3"/>
<line fill="none" stroke="#F29300" stroke-width="1.5" stroke-linecap="round" stroke-miterlimit="10" x1="105.4" y1="43.6" x2="105.4" y2="44.7"/>
<line fill="none" stroke="#F29300" stroke-width="1.5" stroke-linecap="round" stroke-miterlimit="10" x1="107.1" y1="43.8" x2="107.1" y2="44.5"/>
<line fill="none" stroke="#F29300" stroke-width="1.5" stroke-linecap="round" stroke-miterlimit="10" x1="108.8" y1="43.6" x2="108.8" y2="44.7"/>
<line fill="none" stroke="#F29300" stroke-width="1.5" stroke-linecap="round" stroke-miterlimit="10" x1="110.4" y1="43.6" x2="110.4" y2="44.7"/>
<line fill="none" stroke="#F29300" stroke-width="1.5" stroke-linecap="round" stroke-miterlimit="10" x1="112.1" y1="42.6" x2="112.1" y2="45.7"/>
<line fill="none" stroke="#F29300" stroke-width="1.5" stroke-linecap="round" stroke-miterlimit="10" x1="113.8" y1="43.1" x2="113.8" y2="45.2"/>
<line fill="none" stroke="#F29300" stroke-width="1.5" stroke-linecap="round" stroke-miterlimit="10" x1="115.4" y1="43.6" x2="115.4" y2="44.7"/>
<line fill="none" stroke="#F29300" stroke-width="1.5" stroke-linecap="round" stroke-miterlimit="10" x1="117.1" y1="43.8" x2="117.1" y2="44.5"/>
<line fill="none" stroke="#F29300" stroke-width="1.5" stroke-linecap="round" stroke-miterlimit="10" x1="118.8" y1="43.8" x2="118.8" y2="44.5"/>
</svg>
