<?xml version="1.0" encoding="UTF-8" standalone="no"?>
<svg
   width="1024"
   height="1024"
   viewBox="0 0 1024 1024"
   version="1.1"
   id="svg10"
   xml:space="preserve"
   xmlns="http://www.w3.org/2000/svg"
   xmlns:svg="http://www.w3.org/2000/svg"><defs
     id="defs10" /><path
     style="opacity:1;stroke:none;stroke-width:0;stroke-dasharray:none;baseline-shift:baseline;display:inline;overflow:visible;fill:#ffffff;stroke-linejoin:round;enable-background:accumulate;stop-color:#000000;stop-opacity:1"
     d="m 73.929859,327.16725 -0.712592,-48.45629 c -0.06497,-4.4178 -3.592753,-8.92329 -7.682166,-10.59004 -33.303539,-13.57372 -36.60516,-46.72625 -34.419568,-81.05791 0.280699,-4.40925 4.175288,-8.04405 8.592808,-8.12585 l 9.062872,-0.16783 v -34.65374 a 7.9999997,7.9999997 135 0 1 8,-8 h 16.85917 a 7.9999997,7.9999997 45 0 1 8,8 v 34.02183 H 100.5876 v -34.02183 a 7.9999997,7.9999997 135 0 1 8,-8 h 15.91132 a 7.9999997,7.9999997 45 0 1 8,8 v 33.70587 l 10.64241,-0.18038 c 4.41764,-0.0749 8.118,3.44424 8.22671,7.86117 0.87651,35.61407 -0.80889,71.54752 -34.8469,83.12679 -4.18016,1.42203 -7.66608,5.66412 -7.60112,10.08192 l 0.7126,48.45628 a 7.88322,7.88322 134.57873 0 1 -7.88237,7.99913 l -19.702757,1e-5 a 8.1185094,8.1185094 44.57873 0 1 -8.117634,-7.99913 z"
     id="path13"
     transform="matrix(3.0147059,0,0,3.0147059,237.49837,-134.67059)" /></svg>
