<?xml version="1.0" encoding="UTF-8" standalone="no"?>
<svg
   width="1024"
   height="1024"
   viewBox="0 0 1024 1024"
   version="1.1"
   id="svg10"
   xml:space="preserve"
   xmlns="http://www.w3.org/2000/svg"
   xmlns:svg="http://www.w3.org/2000/svg"><defs
     id="defs10" /><path
     id="ellipse1"
     style="opacity:1;fill:#8dc63f;stroke:none;stroke-width:0;stroke-dasharray:none"
     d="M 512,102 A 410,410 0 0 0 102,512 410,410 0 0 0 512,922 410,410 0 0 0 922,512 410,410 0 0 0 512,102 Z m 0,60.29412 A 349.70588,349.70588 0 0 1 861.70588,512 349.70588,349.70588 0 0 1 512,861.70588 349.70588,349.70588 0 0 1 162.29412,512 349.70588,349.70588 0 0 1 512,162.29412 Z" /><path
     d="m 557.74075,584.53575 c 24.52179,61.52243 51.27562,122.92312 84.24282,184.1717 a 42.226977,42.597119 0 0 0 61.04816,14.33089 331.7834,334.69165 0 0 0 85.3588,-87.71966 41.44276,41.80603 0 0 0 -22.95337,-63.13498 C 700.1663,612.43688 639.63092,588.12608 580.60365,562.50697 a 17.132088,17.282259 0 0 0 -22.8629,22.02878 z"
     fill="#f3bd48"
     id="path2"
     style="stroke:none;stroke-width:0;stroke-dasharray:none" /><path
     d="m 590.91909,532.71941 c 62.04349,26.86661 125.47444,52.18148 194.15361,72.08042 a 42.226977,42.597119 0 0 0 53.17582,-33.13449 327.95279,330.82747 0 0 0 -1.11599,-125.08337 42.226977,42.597119 0 0 0 -60.86718,-28.87477 c -61.77205,32.61722 -123.42342,58.90573 -184.924,83.24695 a 16.981278,17.130126 0 0 0 -0.42226,31.76526 z"
     fill="#f09f53"
     id="path3"
     style="stroke:none;stroke-width:0;stroke-dasharray:none" /><path
     d="M 527.57862,592.75092 A 17.252737,17.403965 0 0 0 495.8179,592.2641 c -26.8443,61.88755 -52.08998,125.11382 -71.96685,193.51262 a 41.774545,42.14072 0 0 0 33.41965,53.33768 339.23342,342.20698 0 0 0 54.8649,4.50313 335.40285,338.34283 0 0 0 69.01096,-7.18067 41.71422,42.079868 0 0 0 28.74449,-60.85301 C 577.5271,714.54826 551.4972,653.57352 527.57862,592.75092 Z"
     fill="#ecdc13"
     id="path4"
     style="stroke:none;stroke-width:0;stroke-dasharray:none" /><path
     d="m 499.58815,434.0158 a 17.252737,17.403965 0 0 0 31.76075,0.48684 c 27.14588,-62.49607 52.5424,-126.45259 72.38908,-195.73377 a 41.834868,42.201575 0 0 0 -33.17835,-53.21597 337.81583,340.77695 0 0 0 -125.98718,1.67347 41.684058,42.04944 0 0 0 -28.5937,60.82258 c 32.69575,62.16137 59.14793,124.14018 83.6094,185.96685 z"
     fill="#a95a96"
     id="path5"
     style="stroke:none;stroke-width:0;stroke-dasharray:none" /><path
     d="m 255.90835,396.80418 c 68.10609,20.47704 131.05444,45.94405 192.49468,72.74979 A 17.132088,17.282259 0 0 0 471.23578,447.4339 C 445.68845,382.96012 418.05993,318.60804 383.22269,254.37768 a 42.226977,42.597119 0 0 0 -61.04814,-14.33088 332.35645,335.26975 0 0 0 -89.94346,93.86578 41.653895,42.019015 0 0 0 23.67726,62.8916 z"
     fill="#2b8ec1"
     id="path6"
     style="stroke:none;stroke-width:0;stroke-dasharray:none" /><path
     d="m 466.62096,580.54989 a 17.132088,17.282259 0 0 0 -22.13901,-22.81987 c -62.82768,25.0106 -125.53475,51.99891 -188.091,85.86361 a 41.44276,41.80603 0 0 0 -14.14604,61.279 331.99452,334.90464 0 0 0 90.87849,86.44172 42.226977,42.597119 0 0 0 62.73722,-23.21542 c 20.11813,-66.26896 44.73043,-127.54796 70.76034,-187.54904 z"
     fill="#add14c"
     id="path7"
     style="stroke:none;stroke-width:0;stroke-dasharray:none" /><path
     d="m 559.45998,448.31627 a 17.101925,17.251833 0 0 0 22.10885,22.85033 c 63.15947,-25.1019 126.16815,-52.33362 189.05622,-86.44174 a 41.503085,41.866882 0 0 0 14.50797,-60.85303 332.17549,335.08718 0 0 0 -90.75785,-88.84542 42.226977,42.597119 0 0 0 -63.12932,23.00245 C 610.97689,325.33231 585.882,387.58495 559.45998,448.31627 Z"
     fill="#e74253"
     id="path8"
     style="stroke:none;stroke-width:0;stroke-dasharray:none" /><path
     d="M 433.11085,497.02912 C 370.73557,469.97994 307.03316,444.57381 238.02221,424.52273 a 42.226977,42.597119 0 0 0 -53.29647,33.46918 331.2103,334.11355 0 0 0 -4.34335,53.85492 327.28923,330.1581 0 0 0 7.84216,71.98912 42.046003,42.41456 0 0 0 60.59571,27.62728 c 61.34976,-32.43465 122.60904,-58.63191 183.77781,-82.82097 a 16.981278,17.130126 0 0 0 0.51278,-31.61314 z"
     fill="#01b699"
     id="path9"
     style="stroke:none;stroke-width:0;stroke-dasharray:none" /></svg>
